<svg class="logo-dark" id="Group_4839" data-name="Group 4839" xmlns="http://www.w3.org/2000/svg" viewBox="0 0 250 57.097" fill="#000" width="100%" height="100%">
                <g id="Group_1" data-name="Group 1" transform="translate(71.573 29.424)">
                  <path id="Path_1" data-name="Path 1" d="M106.3,44.1h7.878v1.347h-6.4v3.3h5.925v1.279h-5.925v3.7h6.531v1.414H106.3Z" transform="translate(-106.3 -43.831)"></path>
                  <path id="Path_2" data-name="Path 2" d="M126.806,55.142h-1.279v-1.01a3.131,3.131,0,0,1-2.626,1.279c-2.087,0-3.5-1.616-3.5-4.242,0-2.693,1.414-4.309,3.5-4.309a3.167,3.167,0,0,1,2.626,1.212V44.1h1.279Zm-3.7-7.07c-1.481,0-2.357,1.077-2.357,3.165,0,1.818.943,2.963,2.424,2.963s2.357-1.077,2.357-3.1S124.719,48.073,123.1,48.073Z" transform="translate(-110.58 -43.831)"></path>
                  <path id="Path_3" data-name="Path 3" d="M132.9,44.1h1.347v1.549H132.9Zm0,3.03h1.347v8.012H132.9Z" transform="translate(-114.99 -43.831)"></path>
                  <path id="Path_4" data-name="Path 4" d="M142.819,51.532c0-1.414-.337-2.087-1.616-2.087a2.18,2.18,0,0,0-2.357,2.424v4.579H137.5V48.5h1.279v1.145a2.842,2.842,0,0,1,2.559-1.347,2.68,2.68,0,0,1,2.491,1.077,3.517,3.517,0,0,1,.337,1.953v5.252h-1.347Z" transform="translate(-116.493 -45.203)"></path>
                  <path id="Path_5" data-name="Path 5" d="M149.4,44.1h1.347v4.107a3.081,3.081,0,0,1,2.626-1.414c2.087,0,3.5,1.616,3.5,4.309,0,2.626-1.414,4.242-3.5,4.242a3.131,3.131,0,0,1-2.626-1.279v1.01H149.4Zm3.636,10.1c1.481,0,2.424-1.077,2.424-2.963,0-2.087-.875-3.165-2.357-3.165-1.549,0-2.357,1.01-2.357,3.03C150.679,53.122,151.555,54.2,153.036,54.2Z" transform="translate(-120.38 -43.831)"></path>
                  <path id="Path_6" data-name="Path 6" d="M163.747,53.482c0,1.414.337,2.087,1.616,2.087,1.549,0,2.357-.943,2.357-2.693V48.567h1.347V56.58h-1.279V55.368a3.2,3.2,0,0,1-5.05.337,3.517,3.517,0,0,1-.337-1.953V48.5h1.347Z" transform="translate(-124.627 -45.268)"></path>
                  <path id="Path_7" data-name="Path 7" d="M174.867,48.5h1.279v1.414a2.222,2.222,0,0,1,2.222-1.616h.337v1.414h-.337A2.041,2.041,0,0,0,176.147,52v4.444H174.8V48.5Z" transform="translate(-128.678 -45.203)"></path>
                  <path id="Path_8" data-name="Path 8" d="M184.836,56.751c-2.155,0-3.636-1.683-3.636-4.309,0-2.559,1.414-4.242,3.636-4.242a3.089,3.089,0,0,1,2.559,1.279v-1.01h1.279v7.878c0,2.424-1.077,3.5-3.771,3.5-2.155,0-3.367-.875-3.367-2.357v-.067h1.347c0,.808.673,1.212,2.087,1.212,1.751,0,2.424-.606,2.424-2.087V55.472A2.931,2.931,0,0,1,184.836,56.751Zm-2.155-4.309c0,1.953.875,3.03,2.357,3.03,1.616,0,2.424-.943,2.424-3.03s-.808-3.1-2.424-3.1C183.557,49.412,182.681,50.489,182.681,52.442Z" transform="translate(-130.769 -45.17)"></path>
                  <path id="Path_9" data-name="Path 9" d="M200.219,50.16c0-1.414-.337-2.087-1.616-2.087a2.142,2.142,0,0,0-2.357,2.289v4.713H194.9V44.1h1.347v4.175a2.652,2.652,0,0,1,2.491-1.347,2.68,2.68,0,0,1,2.491,1.077,3.517,3.517,0,0,1,.337,1.953V55.21h-1.347Z" transform="translate(-135.245 -43.831)"></path>
                  <path id="Path_10" data-name="Path 10" d="M212.7,44.1h1.549v9.628h5.521v1.414h-7V44.1Z" transform="translate(-141.06 -43.831)"></path>
                  <path id="Path_11" data-name="Path 11" d="M226.326,56.751a2.324,2.324,0,0,1-2.626-2.424c0-1.481.875-2.289,2.761-2.491a12.945,12.945,0,0,0,2.222-.337c.337-.135.4-.337.4-.875q0-1.212-1.818-1.212c-1.279,0-1.885.539-1.885,1.481H224.1v-.067c0-1.616,1.212-2.626,3.232-2.626,2.155,0,3.165.808,3.165,2.491v4.04c0,.539.067.808.539.808a.732.732,0,0,0,.337-.067v1.077a3.38,3.38,0,0,1-.808.135c-.875,0-1.347-.4-1.347-1.212V55.4A4.025,4.025,0,0,1,226.326,56.751Zm.2-3.838c-.943.135-1.414.539-1.414,1.347s.539,1.212,1.414,1.212c1.481,0,2.491-.808,2.491-1.953V52.307A5.665,5.665,0,0,1,226.528,52.913Z" transform="translate(-144.653 -45.17)"></path>
                  <path id="Path_12" data-name="Path 12" d="M234.8,48.6h1.414l1.683,6.127,1.549-6.127h1.549l1.549,6.127,1.751-6.127h1.414l-2.424,8.012h-1.347l-1.683-6.194-1.683,6.194h-1.347Z" transform="translate(-148.28 -45.301)"></path>
                  <path id="Path_13" data-name="Path 13" d="M259.314,51.376a2.589,2.589,0,0,0,2.9,2.626c1.751,0,2.761-.808,2.761-2.02,0-1.347-1.01-1.481-3.03-1.953-2.424-.606-3.7-1.145-3.7-3.03s1.549-3.3,3.973-3.3,3.905,1.347,3.973,3.5H264.7a2.361,2.361,0,0,0-2.626-2.289c-1.481,0-2.424.741-2.424,1.751,0,1.414,1.01,1.481,3.367,2.087a7.024,7.024,0,0,1,2.559.943,2.518,2.518,0,0,1,.875,2.087c0,2.087-1.616,3.5-4.242,3.5-2.693,0-4.242-1.414-4.309-3.905Z" transform="translate(-155.826 -43.7)"></path>
                  <path id="Path_14" data-name="Path 14" d="M275.836,49.412c-1.414,0-2.289,1.077-2.289,3.03s.808,3.03,2.222,3.03a2.05,2.05,0,0,0,2.222-1.885h1.279a3.23,3.23,0,0,1-3.568,3.165c-2.155,0-3.5-1.549-3.5-4.242s1.414-4.309,3.7-4.309c2.02,0,3.3,1.145,3.367,2.963h-1.347C277.856,50.018,277.115,49.412,275.836,49.412Z" transform="translate(-160.498 -45.17)"></path>
                  <path id="Path_15" data-name="Path 15" d="M289.819,50.16c0-1.414-.337-2.087-1.616-2.087a2.142,2.142,0,0,0-2.357,2.289v4.713H284.5V44.1h1.347v4.175a2.652,2.652,0,0,1,2.491-1.347,2.68,2.68,0,0,1,2.491,1.077,3.517,3.517,0,0,1,.337,1.953V55.21h-1.347V50.16Z" transform="translate(-164.516 -43.831)"></path>
                  <path id="Path_16" data-name="Path 16" d="M299.738,48.2c2.424,0,3.838,1.549,3.838,4.242s-1.414,4.242-3.838,4.242-3.838-1.549-3.838-4.242S297.381,48.2,299.738,48.2Zm.067,7.339c1.549,0,2.424-1.077,2.424-3.1s-.875-3.1-2.424-3.1c-1.616,0-2.491,1.077-2.491,3.1S298.189,55.539,299.805,55.539Z" transform="translate(-168.24 -45.17)"></path>
                  <path id="Path_17" data-name="Path 17" d="M312.638,48.2c2.424,0,3.838,1.549,3.838,4.242s-1.414,4.242-3.838,4.242-3.838-1.549-3.838-4.242S310.214,48.2,312.638,48.2Zm0,7.339c1.549,0,2.424-1.077,2.424-3.1s-.875-3.1-2.424-3.1c-1.616,0-2.491,1.077-2.491,3.1S311.022,55.539,312.638,55.539Z" transform="translate(-172.455 -45.17)"></path>
                  <path id="Path_18" data-name="Path 18" d="M322.2,44.1h1.347V55.142H322.2Z" transform="translate(-176.832 -43.831)"></path>
                </g>
                <g id="Group_5" data-name="Group 5">
                  <g id="Group_3" data-name="Group 3" transform="translate(5.963 5.992)">
                    <path id="Path_19" data-name="Path 19" d="M42.147,51.117a6.147,6.147,0,0,0,.875-.539,4.529,4.529,0,0,0,.741-.471c.2-.135.4-.337.673-.539a5.889,5.889,0,0,0,.673-.539l.135-.135a.235.235,0,0,0,.135-.067,4.356,4.356,0,0,0,.606-.539,2.929,2.929,0,0,0,.4-.471c.135-.135.337-.269.471-.4.067-.067.135-.135.135-.2l.4-.4a.526.526,0,0,1,.269-.269c.269-.269.539-.606.808-.875.2-.269.4-.471.606-.741a3.735,3.735,0,0,1,.4-.539l.2-.2c.2-.269.4-.606.606-.875.067-.135.135-.2.135-.337.067-.067.067-.135.135-.2s.067-.2.135-.269c.135-.269.269-.471.4-.741.135-.2.2-.4.337-.606a2.391,2.391,0,0,1,.269-.606c.067-.2.2-.4.269-.606.337-.875.673-1.751.943-2.693,0-.135.067-.2.067-.337l.2-1.01c0-.2.067-.337.067-.539a3.941,3.941,0,0,0,.135-.875c0-.2.067-.471.067-.673,0-.067.067-.2.067-.269v-.606c0-.067.067-.2.067-.269v-.4a17.981,17.981,0,0,0,0-2.693,8.078,8.078,0,0,0-.2-1.347,10.213,10.213,0,0,0-.2-1.414,36.6,36.6,0,0,0-1.01-3.636c-.067-.135-.135-.337-.2-.471a6.794,6.794,0,0,0-.471-1.01.51.51,0,0,1-.135-.269,5.076,5.076,0,0,0-.4-.875,1.208,1.208,0,0,0-.337-.471,2.016,2.016,0,0,0-.269-.539c-.337-.471-.673-.943-.943-1.414l-.4-.4c-.135-.2-.269-.337-.4-.539l-.4-.4c-.067-.067-.135-.2-.2-.269l-.337-.337-.2-.2c-.135-.2-.337-.337-.471-.539l-.4-.4-.4-.4a3.735,3.735,0,0,1-.539-.4c-.2-.2-.4-.337-.606-.539a1.409,1.409,0,0,1-.4-.269,2.046,2.046,0,0,0-.471-.337c-.135-.067-.2-.2-.337-.269a.51.51,0,0,0-.269-.135,1.469,1.469,0,0,1-.337-.269c-.4-.269-.808-.4-1.212-.673a2.927,2.927,0,0,0-.471-.269l-.808-.4a2.016,2.016,0,0,0-.673-.269c-.135-.067-.2-.135-.337-.2-.067,0-.135-.067-.269-.067l-.4-.2c-.4-.135-.875-.269-1.279-.4l-.606-.2a9.533,9.533,0,0,0-1.347-.269c-.269-.067-.606-.135-.875-.2-.2,0-.4-.067-.606-.067a5.2,5.2,0,0,0-1.01-.135h-.4a.4.4,0,0,1-.269-.067h-.539c-.4,0-.808-.067-1.212-.067-.135.067-.4,0-.539,0H29.017c.135.067,0,.067-.067.135h-.539a.4.4,0,0,0-.269.067c-.2,0-.539,0-.673.135h-.135c-.135,0-.337,0-.4.067a4.717,4.717,0,0,0-.943.2c-.135.067-.337.067-.539.135a.854.854,0,0,0-.4.067,2.14,2.14,0,0,0-.606.2c-.135.067-.269.067-.337.135a2.14,2.14,0,0,0-.606.2.957.957,0,0,1-.4.135,17.444,17.444,0,0,0-1.953.943c-.135.067-.2.135-.337.2a9.571,9.571,0,0,0-2.222,1.414l-.606.4c-.135.067-.2.2-.337.269l-.606.4c-.4.337-.741.673-1.145,1.077-.2.2-.471.4-.673.606-.067.067-.135.2-.2.269-.135.067-.2.2-.337.269a3.735,3.735,0,0,0-.4.539l-.4.4c-.067.067-.135.135-.135.2-.2.269-.471.539-.673.808a5.921,5.921,0,0,0-.4.673c-.2.269-.4.606-.606.875-.067.067-.067.2-.135.269-.135.2-.269.471-.4.673a7.9,7.9,0,0,0-.337.741.51.51,0,0,0-.135.269c-.135.2-.2.4-.337.606a.957.957,0,0,0-.135.4l-.2.4a1.248,1.248,0,0,0-.135.471c-.067.2-.135.337-.2.539a26.223,26.223,0,0,0-.808,3.3c0,.2-.067.4-.067.673s-.135.539-.135.741a1.864,1.864,0,0,1-.067.606,1.314,1.314,0,0,1-.067.471c-.067.943,0,1.818,0,2.693A8.25,8.25,0,0,0,9.02,33.88v.539a15.726,15.726,0,0,0,.269,1.751c.067.135.067.269.135.4a9.844,9.844,0,0,0,.337,1.347c.067.067.067.2.135.269,0,.135.067.2.067.337.2.471.337.943.539,1.414a2.016,2.016,0,0,0,.269.539c.067.135.067.269.135.337.135.337.337.606.471.875s.269.471.4.741c.067.067.067.2.135.269s.067.135.135.135c.067.067.067.2.135.269l.4.606a1.182,1.182,0,0,0,.269.337,1.785,1.785,0,0,1,.337.4c.067.135.2.269.269.4.135.2.337.4.471.606.135.135.269.337.4.471.135.2.337.337.471.539.135.135.269.337.4.471.2.2.471.4.673.606l.337.337a3.735,3.735,0,0,1,.539.4,3.848,3.848,0,0,0,.539.471,1.469,1.469,0,0,1,.337.269,2.928,2.928,0,0,0,.471.4l.606.4.4.2c.135.135.337.2.471.337.135.067.337.2.471.269.606.337,1.145.673,1.751.943l.808.4c.269.135.539.2.808.337.067,0,.2.067.269.067.269.067.539.2.741.269.067,0,.135.067.2.067.2.067.471.2.673.269a3.379,3.379,0,0,0,.808.135c.4.067.875.2,1.279.269a1.146,1.146,0,0,1,.471.067c.2,0,.4.067.606.067h.471a.607.607,0,0,1,.337.067h.337c.269.067.539.067.741.135h.673a2.762,2.762,0,0,1,.741.067h.4c.269,0,.539-.067.875-.067h.4c.135,0,.337-.067.539-.067a16.913,16.913,0,0,0,1.818-.269,1.966,1.966,0,0,1,.606-.135,2.863,2.863,0,0,1,.741-.135c.135-.067.269-.067.337-.135l.606-.2c.067,0,.2-.067.269-.067.135-.067.269-.067.4-.135.269-.135.606-.2.875-.337a2.016,2.016,0,0,0,.539-.269c.2-.067.337-.135.539-.2.067,0,.067-.067.135-.067a2.016,2.016,0,0,0,.539-.269c.2-.135.4-.2.606-.337C41.945,51.184,42.08,51.184,42.147,51.117Zm5.319-5.723c-.2,0-.539.067-.673-.067-.067,0,0-.067,0-.067,0-.135,0-.337.067-.4.067,0,.067-.067.135-.067.135,0,.808,0,.808.135C47.937,44.989,47.6,45.326,47.466,45.393Zm.741-.943H46.86a1.83,1.83,0,0,1,0-.606h.875a.854.854,0,0,1,.4.067h.539A.77.77,0,0,1,48.207,44.451Zm1.01-1.279a.066.066,0,0,0-.067.067c-.067.067-.2.337-.337.4a.247.247,0,0,0-.2.067c-.135,0-.4-.067-.539-.067a1.831,1.831,0,0,0-.606,0,1.672,1.672,0,0,1-.606-.067V43.1c0-.067.067-.067.135-.067a13.522,13.522,0,0,1,1.683.067,1.483,1.483,0,0,1,.539.067Zm.606-.943a2.984,2.984,0,0,1-.471.606,1.938,1.938,0,0,1-.875-.067,5.1,5.1,0,0,1-1.01-.067c-.135,0-.337.067-.471-.067-.067-.067-.067-.269-.067-.4,0-.2.067-.135.2-.2H47.8c.269,0,.539.067.808.067h.808c.135.067.269.067.4.135Zm.135-.337h-.471a3.793,3.793,0,0,0-.875,0H47.466c-.2,0-.337-.067-.539-.067v-.4h0l.269-.067h.4a.854.854,0,0,0,.4-.067,2.291,2.291,0,0,1,.673.067h.539a2.257,2.257,0,0,0,.673,0c.135,0,.269.067.4.067A1.031,1.031,0,0,1,49.957,41.892Zm.606-1.01-.135.135h-.4a1.831,1.831,0,0,0-.606,0c-.135,0-.4-.067-.539,0h-.4c-.135,0-.337-.067-.4,0H46.995v-.606a2.916,2.916,0,0,0,.337-.067h3.232a.247.247,0,0,1,.2.067C50.765,40.478,50.563,40.815,50.563,40.882Zm.471-1.01c-.067.135-.067.2-.2.269H50.7a.607.607,0,0,1-.337-.067h-.943a1.831,1.831,0,0,0-.606,0H46.995v-.2c0-.067,0-.269.067-.337a3.018,3.018,0,0,1,.808-.067h1.347c.135,0,.269.067.4.067h.673a3.245,3.245,0,0,1,.808,0h0C51.1,39.6,51.035,39.8,51.035,39.872Zm.269-.808c-.067,0-.135.067-.2.067H49.217c-.135,0-.269-.067-.337,0h-.741a1.437,1.437,0,0,0-.539,0h-.2a1.313,1.313,0,0,1-.539-.067.247.247,0,0,1-.067-.2.607.607,0,0,0-.067-.337h0c.135,0,.269-.067.471-.067h1.481a.5.5,0,0,0,.337-.067h1.953a1.146,1.146,0,0,1,.471.067C51.506,38.66,51.371,39.064,51.3,39.064Zm.4-1.077a.51.51,0,0,1-.135.269H50.9a1.831,1.831,0,0,0-.606,0H48.88c-.135,0-.337-.067-.4,0a12.989,12.989,0,0,1-1.683-.067,1.672,1.672,0,0,1-.067-.606H47.6c.269,0,.539.067.808.067h2.222a5.11,5.11,0,0,1,1.077.067A.2.2,0,0,1,51.708,37.987Zm.337-.943a.582.582,0,0,1-.2.4,7.285,7.285,0,0,0-1.212,0h-.2a3.793,3.793,0,0,0-.875,0h-.539c-.135,0-.269-.067-.4,0-.135,0-.337-.067-.471,0-.471,0-.875-.067-1.347-.067v-.539c0-.067.2-.067.2-.067h2.289c.337,0,.673.067,1.077.067.2,0,.471-.067.673-.067.135,0,.875-.067.943.067A.247.247,0,0,1,52.045,37.044Zm.135-.673c0,.067-.067.135-.067.2H50.025c-.135,0-.4-.067-.539,0h-.269a1.864,1.864,0,0,1-.606-.067c-.606,0-1.212-.067-1.885-.067h0c-.067,0,0-.471,0-.539h2.222a5.05,5.05,0,0,0,1.01,0h2.155A.425.425,0,0,1,52.179,36.371Zm.135-.741a.066.066,0,0,0-.067.067,3.232,3.232,0,0,0-.808,0h-1.01c-.067,0-.2-.067-.269,0a.607.607,0,0,0-.337.067.607.607,0,0,1-.337-.067H48.88c-.067,0-.2-.067-.337,0a.607.607,0,0,1-.337-.067H46.86v-.539h1.347c.067,0,.135.067.269,0,.135,0,.269-.067.4,0,.269,0,.741.067.943-.067h1.818a1.864,1.864,0,0,1,.606.067C52.449,35.092,52.314,35.563,52.314,35.63Zm.135-.943a.247.247,0,0,1-.2.067H50.967c-.135,0-.4-.067-.539,0H48.274c-.067,0-.2-.067-.269,0-.4,0-.808-.067-1.212-.067h0c0-.067,0-.471.067-.471a1.313,1.313,0,0,1,.539-.067h1.212a3.018,3.018,0,0,0,.808-.067c.269,0,.539.067.808.067h1.481a2.728,2.728,0,0,1,.741,0C52.583,34.216,52.516,34.62,52.449,34.688Zm.067-.808c-.067,0-.135.067-.2.067-.135,0-.4-.067-.539,0h-.4c-.539,0-1.077-.067-1.616-.067-.135,0-.4-.067-.539,0-.135,0-.471-.067-.539,0H46.86v-.135a.854.854,0,0,1,.067-.4c0-.067.135,0,.135,0h1.414c.606,0,1.145.067,1.683.067h2.087a.4.4,0,0,1,.269.067C52.583,33.476,52.583,33.812,52.516,33.88ZM52.651,33a.332.332,0,0,0-.2.067h-3.5c-.135,0-.269-.067-.337,0H46.927v-.606h0c0-.067.067,0,.067,0h4.713c.135,0,.808-.067.943.067C52.718,32.533,52.718,32.937,52.651,33Zm.067-.943c-.067,0-.2.067-.269.067-.2,0-.471-.067-.606,0h-3.3c-.135,0-.4-.067-.471,0h-.539c-.135,0-.269-.067-.337,0h-.269c-.135-.067-.135-.471-.135-.606H47.87a1.864,1.864,0,0,0,.606-.067h3.03a1.313,1.313,0,0,0,.539-.067h.606C52.785,31.523,52.718,31.995,52.718,32.062Zm.067-1.212v.269c0,.067-.135.067-.135.067h-.269c-.135,0-.337-.067-.471,0H50.092c-.135,0-.4-.067-.539,0a1.831,1.831,0,0,0-.606,0c-.135,0-.269-.067-.4,0H46.86c-.067,0,0,0,0-.067v-.471h0c0-.067.067,0,.135,0,.4,0,.741-.067,1.145-.067h.875c.135,0,.2.067.337.067h2.9c.135,0,.471,0,.471.067C52.785,30.715,52.785,30.783,52.785,30.85Zm-.067-.539a.247.247,0,0,0-.2.067c-.135,0-.337,0-.4.067H50.967a2.245,2.245,0,0,0-.673,0,2.257,2.257,0,0,0-.673,0h-.539c-.135,0-.4-.067-.539,0h-.808a2.076,2.076,0,0,1-.673-.067c-.067-.067,0-.2-.067-.269,0-.067-.067-.269.067-.337a1.383,1.383,0,0,1,.741,0h4.309a1.313,1.313,0,0,1,.539.067C52.718,29.907,52.785,30.244,52.718,30.311Zm-.067-.875c-.135.135-.606,0-.741.067h-.875c-.135,0-.337-.067-.471,0-.135,0-.606-.067-.673,0-.135,0-.4-.067-.539,0H46.995c-.067,0,0-.2,0-.269v-.2c0-.2.269-.135.4-.2.2,0,.4.067.606.067h.539a2.526,2.526,0,0,0,.673-.067h2.424a4.459,4.459,0,0,1,1.01.067c.067.067,0,.2.067.269A.4.4,0,0,0,52.651,29.436Zm-.067-.875h-.539c-.135,0-.337-.067-.471,0h-.606c-.269,0-.539-.067-.741-.067h-2.02c-.067,0-.2-.067-.269,0a3.557,3.557,0,0,1-.875-.067.209.209,0,0,1-.067-.135c0-.135-.067-.269.067-.337s.269,0,.4,0h2.761a6.486,6.486,0,0,0,1.145,0h.4a3.018,3.018,0,0,1,.808.067C52.583,28.089,52.583,28.426,52.583,28.561Zm-.135-.875h0c0,.067-.135,0-.135.067h-.943c-.067,0-.2-.067-.269,0h-.337a2.257,2.257,0,0,0-.673,0h-2.02c-.135,0-.269-.067-.4,0a2.076,2.076,0,0,1-.673-.067c-.067-.067,0-.135,0-.2,0-.135,0-.269.067-.269h.269a5.746,5.746,0,0,1,1.077,0H49.89a4.412,4.412,0,0,0,.943,0,6.306,6.306,0,0,1,1.683.135A1.37,1.37,0,0,0,52.449,27.685Zm-.2-.875a.066.066,0,0,0-.067.067H49.419a2.728,2.728,0,0,0-.741,0H47.062v-.606A.209.209,0,0,1,47.2,26.2h3.973a1.831,1.831,0,0,0,.606,0c.135,0,.337,0,.4.067C52.179,26.339,52.247,26.675,52.247,26.81Zm-.2-.875H49.351c-.135,0-.269-.067-.4,0H47.735a2.525,2.525,0,0,1-.741-.067c-.067,0-.067-.471-.067-.539h4.579a.4.4,0,0,1,.269.067C51.977,25.463,51.977,25.8,52.045,25.935Zm-.4-1.414c.067.067.2.471.067.539s-.337,0-.471,0H49.284c-.135,0-.606-.067-.673,0h-.4c-.135,0-.337-.067-.471,0-.269,0-.539-.067-.875-.067a1.483,1.483,0,0,1,.067-.539,3.839,3.839,0,0,1,.875-.067h1.885a.854.854,0,0,1,.4.067,3.557,3.557,0,0,0,.875-.067h.2C51.371,24.453,51.573,24.453,51.641,24.521Zm-.2-.471c.067.2.067.135-.067.2h-.943c-.135,0-.337-.067-.471,0H48.072a2.257,2.257,0,0,0-.673,0,1.146,1.146,0,0,1-.471-.067v-.269c0-.135,0-.269.135-.269h2.491a5.05,5.05,0,0,0,1.01,0c.2.067.673-.067.741.067C51.371,23.78,51.371,23.915,51.439,24.049ZM50.9,22.77c.067,0,.269.539.2.539-.135.135-.471-.067-.673,0h-.741c-.135,0-.471-.135-.606-.067a.247.247,0,0,0-.2.067H47.8c-.135,0-.269-.067-.4,0a1.146,1.146,0,0,1-.471-.067,1.672,1.672,0,0,1-.067-.606h0s.337-.067.4-.067H48c.2,0,.4.067.606.067a1.483,1.483,0,0,0,.539-.067h1.414C50.7,22.77,50.833,22.7,50.9,22.77Zm-.4-.875c.135.067.2.4.269.539.067,0-.135.067-.135.067h-.539c-.135,0-.4-.067-.539,0h-.808c-.135,0-.606-.067-.673,0a5.109,5.109,0,0,1-1.077-.067v-.269a.247.247,0,0,1,.067-.2c.135-.067.471-.067.673-.135H47.8a3.793,3.793,0,0,0,.875,0h1.616C50.227,21.895,50.361,21.828,50.5,21.895Zm-.269-.539a.126.126,0,0,1,0,.2h-.2c-.135,0-.337-.067-.471,0h-.2c-.135,0-.4-.067-.539,0H47.264a.4.4,0,0,1-.269-.067v-.067c0-.135-.067-.471.067-.539.067-.067.2,0,.337,0h2.761C50.159,21.087,50.227,21.222,50.227,21.356Zm-.606-1.212c.067.067.067.135.135.2l.135.135c0,.067.067.135.067.2h0c-.067,0-.135,0-.135.067-.2,0-.606-.135-.741-.067H47.264a.4.4,0,0,1-.269-.067c-.067-.067,0-.471,0-.606.606,0,1.279.067,1.885.067C49.015,20.144,49.486,20.077,49.621,20.144Zm-.606-.875a1.191,1.191,0,0,1,.337.539.066.066,0,0,0-.067.067c-.135,0-.471-.067-.539,0h-.4c-.135,0-.4-.067-.539,0h-.135c-.269,0-.471-.067-.673-.067,0-.135-.067-.471.067-.606h1.347A1,1,0,0,1,49.015,19.269Zm-.808-.943h.2c.067.067.135.2.2.269s.135.135.067.269a.066.066,0,0,1-.067.067H47.331c-.067,0-.337,0-.4-.067a1.483,1.483,0,0,1-.067-.539Zm-.2-.269h0c-.067,0-.067,0-.135.067a4.141,4.141,0,0,1-.943-.067.4.4,0,0,1-.067-.269.5.5,0,0,1,.067-.337,1.864,1.864,0,0,1,.606.067C47.735,17.518,48,17.922,48,18.057Zm-1.077-1.481c.067.067.471.4.4.471,0,.067-.135.067-.2.067h-.2C46.86,17.047,46.927,16.643,46.927,16.576Zm-.539,29.962c.067-.067.135-.2.2-.269l.2-.606h.471c0,.2-.741.808-.875.875ZM15.417,17.182s.337-.4.4-.471a.575.575,0,0,1,0,.471.429.429,0,0,1-.4,0Zm-.741.875c0-.135.2-.2.269-.337.067-.067.135-.2.2-.269a2.291,2.291,0,0,1,.673.067v.606h0a1.437,1.437,0,0,0-.539,0h-.135a1.146,1.146,0,0,1-.471-.067Zm-.606.606c.067-.067.135-.2.2-.269s.135,0,.2,0h1.347v.539h0a.332.332,0,0,0-.2.067h-.875a1.83,1.83,0,0,0-.606,0h-.269C13.935,18.865,14.07,18.73,14.07,18.663ZM13.4,19.74a2.1,2.1,0,0,1,.269-.4.4.4,0,0,1,.269-.067h.471a3.019,3.019,0,0,1,.741.067h.337a.854.854,0,0,1,.4.067v.539c-.067,0-.067.067-.135.067a.854.854,0,0,0-.4.067H15.08c-.135,0-.337-.067-.471,0H13.4A.466.466,0,0,1,13.4,19.74Zm-.269.4a1.831,1.831,0,0,1,.606,0h2.087a1.864,1.864,0,0,1-.067.606c-.067.067-.135,0-.2,0h-.4a1.831,1.831,0,0,0-.606,0,1.437,1.437,0,0,0-.539,0,2.245,2.245,0,0,0-.673,0h-.539A1.093,1.093,0,0,1,13.127,20.144Zm-.741,1.347a1,1,0,0,1,.2-.471c.067,0,.067-.067.135-.067h2.155a3.839,3.839,0,0,1,.875.067.4.4,0,0,1,.067.269c0,.067,0,.269-.067.269h-.135c-.135,0-.337-.067-.471,0h-.875c-.135,0-.4-.067-.539,0h-.2a2.762,2.762,0,0,1-.741-.067.3.3,0,0,1-.4,0Zm-.2.337c.135,0,.269.067.4,0h2.559c.2,0,.4.067.673.067v.471a4.769,4.769,0,0,1-1.01.067c-.135,0-.337-.067-.471,0h-.471c-.067,0-.2-.067-.269,0H12.454c-.135,0-.269-.067-.471-.067A1.075,1.075,0,0,1,12.185,21.828Zm-.539,1.212a.247.247,0,0,1,.067-.2c0-.067.067-.067.135-.067h1.145c.337,0,.741.067,1.077.067h.673a5.791,5.791,0,0,1,1.077.067c0,.067,0,.135.067.135v.471H13.8a1.83,1.83,0,0,0-.606,0,.4.4,0,0,0-.269.067c-.2,0-.337-.067-.539-.067h-.808A.743.743,0,0,1,11.646,23.039Zm-.4,1.145a1.286,1.286,0,0,1,.2-.539h0c.337,0,.741.067,1.077.067h1.01a.607.607,0,0,1,.337.067h1.616a.5.5,0,0,1,.337.067c.067.067.067.4.067.471h0c0,.067-.067,0-.135.067h-.269a2.257,2.257,0,0,0-.673,0c-.135,0-.269-.067-.337,0h-.2c-.269,0-.539-.067-.808-.067H12.185c-.269-.067-.741,0-.943-.135C11.175,24.251,11.175,24.184,11.242,24.184Zm-.2.4a.247.247,0,0,1,.2-.067c.269,0,.471.067.673.067h1.01c.135,0,.269.067.4.067h2.491c0,.135.067.4,0,.471h-.135a1.864,1.864,0,0,0-.606.067.5.5,0,0,1-.337-.067H12.117a1.831,1.831,0,0,0-.606,0,2.291,2.291,0,0,1-.673-.067C10.838,24.992,10.973,24.588,11.04,24.588Zm-.2.808a.247.247,0,0,1,.2-.067.4.4,0,0,1,.269.067h1.212c.337,0,.741.067,1.145.067h1.347a3.557,3.557,0,0,1,.875.067c.067.067,0,.135,0,.269s0,.2-.067.269h-.471c-.067,0-.2-.067-.337,0H13.868c-.135,0-.337-.067-.471,0A8.585,8.585,0,0,1,12.05,26c-.135,0-.4-.067-.539,0h-.135c-.269,0-.539-.067-.808-.067C10.636,25.8,10.7,25.463,10.838,25.4Zm-.337.943c.067,0,.067-.067.135-.067a9.024,9.024,0,0,1,1.347.067h.539c.135,0,.2-.067.337,0,.606,0,1.145.067,1.751.067h.539c.2,0,.539-.067.673.067a1.313,1.313,0,0,1,.067.539H14.2c-.135,0-.269-.067-.337,0h-3.1a.607.607,0,0,1-.337-.067A.784.784,0,0,1,10.5,26.339Zm-.337,1.279c0-.135,0-.4.135-.471a1.146,1.146,0,0,1,.471-.067h.875a15.812,15.812,0,0,0,1.818.067h1.549a1.164,1.164,0,0,1,.673.067c.067.067,0,.4.067.471h0c0,.067-.2,0-.269,0H13.8c-.135,0-.4-.067-.539,0a5.1,5.1,0,0,1-1.01-.067h-.269a1.831,1.831,0,0,0-.606,0Zm-.135.808c.067-.4.067-.4.471-.471h.673a3.278,3.278,0,0,1,.808.067h.4c1.145,0,2.357,0,3.434.067a1.483,1.483,0,0,1-.067.539c0,.067-.4,0-.471.067H13.6c-.2,0-.673-.135-.875,0-.067,0-.2-.067-.337,0h-.875c-.269,0-.539-.067-.808-.067h-.2a1.146,1.146,0,0,1-.471-.067C9.963,28.493,9.963,28.426,10.03,28.426Zm.067.4h3.3a1.146,1.146,0,0,1,.471.067h1.818V29.5h-.471c-.067,0-.2-.067-.337,0-.135,0-.4-.067-.539,0a2.525,2.525,0,0,1-.741-.067h-.269c-.135,0-.269-.067-.337,0-.135,0-.337-.067-.471,0H10.973c-.067,0-.2-.067-.337,0a2.257,2.257,0,0,1-.673,0v-.067C9.963,29.234,9.963,28.9,10.1,28.83Zm-.135.875h4.309a5.216,5.216,0,0,1,1.481.067c.135.067.067.4.067.606a.4.4,0,0,0-.269.067h-.4c-.067,0-.2-.067-.337,0H11.646c-.135,0-.471-.067-.539,0h-.471c-.269,0-.539-.067-.808-.067C9.9,30.109,9.828,29.773,9.963,29.705Zm-.135.875c.808,0,1.616.067,2.424.067h.269c.2,0,.471.067.741.067H14.2a9.959,9.959,0,0,1,1.481.067c.067.067,0,.135,0,.2,0,.4-.2.135-.471.269H13.262a1.831,1.831,0,0,0-.606,0H10.367a1.313,1.313,0,0,1-.539-.067c0-.067-.067-.135-.067-.2C9.761,30.85,9.828,30.715,9.828,30.581Zm.067.943a.209.209,0,0,1,.135-.067,14.645,14.645,0,0,1,1.751.067h3.771c.067.067,0,.471,0,.606h0c0,.067-.337,0-.4,0H13.935c-.135,0-.269-.067-.4,0a8.115,8.115,0,0,0-1.279,0H10.905c-.135,0-.269-.067-.4,0h-.2c-.135,0-.4,0-.471-.067A1.483,1.483,0,0,1,9.9,31.523Zm0,.875a.854.854,0,0,0,.4-.067,3.244,3.244,0,0,0,.808,0h.943c.135,0,.269-.067.4-.067h.4a.4.4,0,0,1,.269.067c.875,0,1.751,0,2.626.067h0V33H14.2c-.135,0-.269-.067-.4,0-.135,0-.4-.067-.539,0H10.3a.247.247,0,0,1-.2-.067A.451.451,0,0,1,9.9,32.4Zm.067,1.01h0c0-.067.067,0,.135,0h.269c.269,0,.673.067.875-.067h.471a1.482,1.482,0,0,1,.539.067h2.424a.607.607,0,0,1,.337.067,2.245,2.245,0,0,1,.673,0,.066.066,0,0,1,.067.067c0,.135.067.269,0,.4-.067.067-.673,0-.741.067a2.244,2.244,0,0,0-.673,0,1.83,1.83,0,0,0-.606,0H12.454c-.135,0-.337-.067-.4,0-.2,0-.471-.067-.606,0-.2,0-.4-.067-.673-.067h-.4C9.963,33.88,9.963,33.812,9.963,33.408Zm.067,1.01a.4.4,0,0,1,.067-.269c.135-.067.4,0,.606,0h4.579a.854.854,0,0,1,.4.067c.067,0,0,.471,0,.539-.067,0-.2-.067-.269,0H14.07c-.135,0-.539-.067-.606,0h-.4c-.135,0-.2-.067-.337,0-.337,0-.673-.067-1.01-.067h-.875c-.135,0-.606,0-.673-.135C10.1,34.62,10.03,34.486,10.03,34.418Zm.135.673h0a7.284,7.284,0,0,1,1.212,0,2.257,2.257,0,0,0,.673,0c.269,0,.673.067.943.067h.471a1.313,1.313,0,0,1,.539.067c.067,0,.2-.067.269-.067h.741a1.164,1.164,0,0,1,.673.067v.539h0s-.337,0-.4.067h-.741a.854.854,0,0,0-.4.067h-.269a2.567,2.567,0,0,0-1.01.067c-.2,0-.337-.067-.539-.067a17.643,17.643,0,0,1-1.885-.067.5.5,0,0,1-.337-.067A2.789,2.789,0,0,0,10.165,35.092Zm.269,1.414c-.067-.067-.067-.135-.067-.269,0-.067-.067-.2,0-.269l.067-.067c.135-.067.269,0,.4,0h1.549c.808.067,1.683,0,2.559.067a2.775,2.775,0,0,1,.808.067c.067,0,0,.4,0,.471h-.2c-.135,0-.471-.067-.539,0h-.539c-.2,0-.606-.067-.741.067H13.4a2.729,2.729,0,0,0-.741,0,2.257,2.257,0,0,0-.673,0,2.716,2.716,0,0,0-.741,0A2.323,2.323,0,0,1,10.434,36.506Zm.2.808c-.135-.067-.135-.4-.135-.539a.5.5,0,0,0,.337-.067,3.839,3.839,0,0,1,.875.067.509.509,0,0,1,.269.067h.741c.2,0,.4-.067.606-.067h1.481a3.755,3.755,0,0,1,.875,0,.4.4,0,0,1,.067.269v.269c-.067.067-.337,0-.4.067H14c-.135,0-.337-.067-.4,0h-.471c-.2,0-.471-.067-.606,0-.2,0-.4-.067-.606-.067A3.976,3.976,0,0,1,10.636,37.314Zm.135.606a.235.235,0,0,0-.067-.135c.067-.135.539-.067.673-.135h1.549a.4.4,0,0,1,.269.067H14.2a.607.607,0,0,0,.337-.067h1.212v.135c0,.067,0,.471-.067.471H13.464c-.135,0-.269-.067-.337,0h-.606c-.135,0-.606-.067-.673,0a.854.854,0,0,1-.4-.067,1.313,1.313,0,0,1-.539-.067C10.838,38.122,10.838,37.987,10.771,37.92Zm.471,1.212c-.067-.067-.269-.471-.135-.539.2-.135.673,0,.943-.067a3.278,3.278,0,0,1,.808.067h.606a.4.4,0,0,1,.269.067h1.414a1.146,1.146,0,0,1,.471.067.575.575,0,0,1,0,.471c-.067.135-1.212,0-1.414.067H12.723a1.315,1.315,0,0,1-.471-.067h-.269c-.135,0-.269-.067-.337,0h-.2C11.444,39.132,11.309,39.132,11.242,39.132Zm.4.875c0-.067-.067-.067-.067-.135a.413.413,0,0,1-.067-.4c.067,0,.067-.067.135-.067h3.232c.269,0,.539.067.875.067a1.313,1.313,0,0,1-.067.539H14.137a.607.607,0,0,1-.337-.067h-.673c-.135,0-.337-.067-.471,0A5.815,5.815,0,0,1,11.646,40.007Zm.4.875c-.135-.067-.2-.4-.2-.539H13.8a2.762,2.762,0,0,1,.741.067h.337c.269,0,.471.067.741.067v.539h0s-.135,0-.135.067H13.262a.4.4,0,0,1-.269-.067h-.673C12.185,40.95,12.117,40.95,12.05,40.882Zm.135.337c.067,0,.067,0,.067-.067a3.557,3.557,0,0,0,.875.067H14a1.449,1.449,0,0,1,.539,0c.135,0,.269.067.4.067.2,0,.539-.067.741.067.067.067.067.337.067.471h0c0,.067-.471,0-.539.067H14.137a.4.4,0,0,1-.269-.067h-.943a.4.4,0,0,1-.269-.067A.614.614,0,0,1,12.185,41.219Zm1.077,1.616a.247.247,0,0,1-.2-.067c-.067-.067-.067-.135-.135-.2a1.085,1.085,0,0,1-.269-.471c.2,0,.337.067.539.067h1.549a2.716,2.716,0,0,0,.741,0c.067,0,.067,0,.135.067a1.482,1.482,0,0,1,.067.539c0,.067-.067,0-.067.067h-.875c-.135,0-.337-.067-.471,0-.2,0-.539-.067-.673.067C13.464,42.767,13.329,42.767,13.262,42.835Zm.4.741c-.067,0-.337-.4-.337-.471a1.672,1.672,0,0,1,.606-.067h1.683v.471l-.269.067H14.2c-.067,0-.2,0-.2.067A.5.5,0,0,1,13.666,43.575Zm.135.337h.606a1.673,1.673,0,0,0,.539-.067c.2,0,.606-.067.741.067h0c0,.135.067.4,0,.471-.067,0-.067.067-.135.067h-.2c-.067,0-.337-.067-.4,0h-.606C14.137,44.383,13.868,43.979,13.8,43.912Zm1.212,1.414a1.815,1.815,0,0,1-.471-.539V44.72h.337c.135,0,.673-.067.808.067v.539c0,.067-.067,0-.067.067A1.672,1.672,0,0,1,15.013,45.326Zm.808.943h0c-.135,0-.471-.471-.539-.539h0c0-.067.135,0,.135-.067a.4.4,0,0,1,.269.067c.067,0,.135.4.135.539ZM43.359,49.1a2.244,2.244,0,0,1-.673,0h-.067c.067-.067.135-.067.269-.135.337-.135.673-.2.943-.337C43.965,48.693,43.426,49.1,43.359,49.1Zm-16.5-38.648a1.585,1.585,0,0,0,.539-.135c.337-.067.606-.135.943-.2a2.244,2.244,0,0,1,.673,0c.269,0,.606-.135.875-.135h.337a.854.854,0,0,0,.4-.067h.875a1.482,1.482,0,0,1,.539.067c.135,0,.269.067.4.067h.606a.4.4,0,0,1,.269.067h.4c.135,0,.337.067.471.067h.2c.067,0,.135.067.2.067s.2.067.269.067c.337.067.741.067,1.145.135h.067c0,.067-.606,0-.741,0H33.731c-.2,0-.606-.135-.808,0a2.076,2.076,0,0,1-.673-.067c-.135,0-.269-.067-.4,0h-.269c-.135,0-.269-.067-.337,0a.247.247,0,0,0-.2.067H29.489a.4.4,0,0,1-.269-.067h-.673c-.135,0-.539-.067-.606,0a6.161,6.161,0,0,1-1.077.067Zm-2.9.875c.067,0,.269-.135.337-.135s.135-.067.2-.067c.067-.067.135-.067.2-.135.269-.067.539-.135.741-.2a1.437,1.437,0,0,1,.539,0h2.491c.943.067,1.885.067,2.9.067a1.315,1.315,0,0,0,.471-.067h.673c1.077,0,2.222-.067,3.3,0h1.549c.337.067.539.269.875.337.2.067.606.067.673.2h-.673c-.135,0-.269-.067-.4-.067H36.02a2.241,2.241,0,0,0-.943.067c-.135,0-.269-.067-.337,0a.5.5,0,0,1-.337-.067H31.172c-.337,0-.606-.067-.943-.067h-1.01c-.135,0-.4-.067-.539,0H25.449a5.282,5.282,0,0,1-1.481.135Zm-1.549.606c.067-.067.135-.067.2-.135.471-.337,1.145-.135,1.751-.135h5.656c.337,0,.673.067,1.077.067.2,0,.337-.067.539-.067.471,0,.875.067,1.347.067.2,0,.471-.067.673-.067h1.077a1.482,1.482,0,0,0,.539-.067H37.7c.135,0,.269.067.4.067a1.483,1.483,0,0,0,.539-.067,3.245,3.245,0,0,0,.808,0c.269,0,.471.2.741.269a2.016,2.016,0,0,1,.673.269V12.2H40.4a1.146,1.146,0,0,0-.471.067h-.2a2.716,2.716,0,0,0-.741,0h-.808c-.135,0-.337-.067-.4-.067H36.626a3.245,3.245,0,0,0-.808,0h-.875c-.135,0-.4-.067-.539,0H28.546c-.875,0-1.751-.067-2.559-.067h-.337c-.067,0-.2-.067-.337,0-.135,0-.4-.067-.539,0H23.7a2.257,2.257,0,0,0-.673,0c-.135,0-.4-.067-.539,0h-.135c-.2,0-.4-.067-.539-.067C21.88,12.132,22.352,11.93,22.419,11.93ZM20.4,13.075h0c0-.067.135-.135.2-.135.067-.067.2-.135.269-.2.135-.067.2-.135.337-.2a6.532,6.532,0,0,1,1.145-.067h2.087a14.04,14.04,0,0,1,1.683,0h.808c.337,0,.673.067,1.01.067h.606c.269,0,.539-.067.808-.067.539,0,1.145.067,1.751.067h2.02c.4,0,.741.067,1.145.067.135,0,.337-.067.471-.067h.471c.067,0,.2.067.269.067h1.077c.135,0,.269-.067.471-.067h4.713c.067,0,.135.067.2.135.2.135.337.2.539.337,0,.067-.269.067-.337.135H37.366a1.831,1.831,0,0,0-.606,0h-.4c-.135,0-.471-.067-.539,0h-.269c-.135,0-.4-.067-.471,0h-.4c-.135,0-.269-.067-.4,0H32.855c-.2,0-.471-.067-.606,0H31.98c-.135,0-.337-.067-.471,0H29.893a3.244,3.244,0,0,0-.808,0H28.95c-.2,0-.337-.067-.539-.067H27.132c-.135,0-.269-.067-.4-.067H23.7a1.831,1.831,0,0,0-.606,0H21.544a2.291,2.291,0,0,1-.673-.067c-.067.2-.269.2-.471.135Zm-1.212.808a.145.145,0,0,0,.135-.135l.606-.4a1.146,1.146,0,0,1,.471-.067,1.483,1.483,0,0,1,.539.067h2.491c.269,0,.471.067.673.067a5.758,5.758,0,0,1,1.077,0h4.915c.2,0,.4.067.673.067.337,0,.606-.067.875-.067a2.29,2.29,0,0,1,.673.067h3.165c.2,0,.4-.067.673-.067h3.569a2.716,2.716,0,0,1,.741,0c.269,0,.539.067.808.067s.471-.067.741-.067a1.146,1.146,0,0,0,.471-.067,1.864,1.864,0,0,1,.606.067c.067,0,.135.135.2.2.067,0,.067.067.135.067.135.067.269.2.4.269a.066.066,0,0,1-.067.067h-.4c-.135,0-.337-.067-.4,0h-4.04c-.135,0-.269-.067-.337,0H36.02c-.067,0-.2-.067-.269,0-.269,0-.741-.067-.943.067H32.99c-.2,0-.471-.067-.606,0h-3.7c-.067,0-.2-.067-.269,0H25.584c-.067,0-.2-.067-.269,0H24.1c-.067,0-.2-.067-.337,0H22.015a4.412,4.412,0,0,0-.943,0H20.13a3.884,3.884,0,0,1-.943-.2Zm-1.279.943c.067,0,.067-.067.135-.067a2.052,2.052,0,0,1,.673-.471,3.806,3.806,0,0,0,.875,0h1.953c.539,0,1.077.067,1.616.067a.607.607,0,0,0,.337-.067h.875a1.146,1.146,0,0,1,.471.067h1.01c.4,0,.875-.067,1.279-.067h.606a2.916,2.916,0,0,0,.337.067h.606c.337,0,.673.067,1.01.067h2.963a.854.854,0,0,1,.4.067h3.3a.607.607,0,0,1,.337.067h.539c.337,0,.741.067,1.077.067.606,0,1.279-.067,1.885-.067H40.8c.135,0,.2-.067.337-.067h1.01a1.864,1.864,0,0,1,.606.067.854.854,0,0,0,.4-.067h.4a2.762,2.762,0,0,1,.741.067c.135,0,.539.4.606.471h-.471a1.938,1.938,0,0,0-.875.067h-.4c-.2,0-.606-.067-.741.067a.854.854,0,0,1-.4-.067h-.875a1.831,1.831,0,0,0-.606,0H36.9c-.135,0-.269-.067-.4,0h-2.02c-.2,0-.673-.067-.741,0a1.831,1.831,0,0,0-.606,0H32.99c-.269,0-.471-.067-.741-.067h-.2a2.244,2.244,0,0,0-.673,0h-.135c-.135,0-.471-.135-.606-.067h-.943c-.135,0-.4-.067-.539,0h-1.01a.607.607,0,0,1-.337-.067H26.661a.4.4,0,0,0-.269.067h-.337c-.2,0-.4-.135-.606-.067H24.035c-.337,0-.673-.067-1.01-.067a.247.247,0,0,1-.2-.067H21.88c-.2,0-.471-.067-.606,0-.067,0-.2-.067-.269,0-.135,0-.337-.067-.4,0H19.322a10.425,10.425,0,0,1-1.414.067Zm-.943.875c0-.067.135-.2.135-.2.135-.135.269-.269.4-.269.2-.067.539,0,.808-.067H23.7a8.977,8.977,0,0,1,1.347,0c.539,0,1.01.067,1.549.067a4.4,4.4,0,0,1,.943,0c.2,0,.337.067.539.067h4.175c.135,0,.269.067.471.067a.854.854,0,0,0,.4-.067h2.222c.337,0,.673-.067,1.077-.067a5.062,5.062,0,0,0,1.01,0h3.905a.4.4,0,0,1,.269.067,6.5,6.5,0,0,0,1.145,0c.135,0,.337-.067.471-.067a.854.854,0,0,0,.4-.067h.943c.135,0,.337-.067.471,0,.067,0,.135.067.2.135.067,0,.269.269.2.269-.135.067-.337,0-.471.067-.2,0-.741-.067-.875.067H41.743c-.135,0-.4-.067-.539,0H39.454c-.135,0-.337-.067-.471-.067h-.606c-.067,0-.2-.067-.269,0H36.491c-.2,0-.4-.067-.539-.067h-1.01c-.135,0-.471-.067-.539,0h-.741c-.135,0-.337-.067-.4,0h-3.5c-.135,0-.337-.067-.471,0h-.471c-.135,0-.2-.067-.337,0-.135,0-.269-.067-.4,0h-.4a.247.247,0,0,0-.2.067H26.19a1.437,1.437,0,0,0-.539,0,9.023,9.023,0,0,1-1.347-.067c-.135,0-.269-.067-.4,0h-.606c-.135,0-.269-.067-.337,0h-2.02c-.135,0-.337-.067-.471,0a3.245,3.245,0,0,0-.808,0H17.908c-.135,0-.337-.067-.4,0h-.337c0,.135-.135.135-.2.135Zm2.626,33.463a.864.864,0,0,1-.673-.269l-.2-.2c.337.067.673.2,1.01.269.269.067.539.135.875.2h-1.01Zm.471.471c-.067-.067-.2-.067-.2-.2.471,0,.943.067,1.414.067h.943a7.42,7.42,0,0,1,1.212.135,3.557,3.557,0,0,1,.875.067c.471.067.943.135,1.481.2.337.067.741.067,1.077.135H21.746c-.135,0-.2-.067-.337-.067a2.525,2.525,0,0,1-.741-.067A.853.853,0,0,1,20.062,49.635Zm2.02,1.212c-.337-.135-.606-.4-.875-.471v-.067h.943c.135,0,.337.067.539.067s.4-.067.673-.067h2.9a7.318,7.318,0,0,1,1.212.067h.2a.5.5,0,0,1,.337.067,6.8,6.8,0,0,1,1.01.471l.067.067c-.067,0-.067,0-.135.067h-.2c-.2,0-.4-.067-.673-.067h-.2c-.135,0-.269-.067-.337,0H25.718c-.135,0-.337-.067-.539-.067a.5.5,0,0,0-.337.067h-.471a12.974,12.974,0,0,1-1.616-.067A2.076,2.076,0,0,1,22.082,50.847Zm3.03,1.01h-.337c-.135,0-.269-.067-.4-.067a.4.4,0,0,0-.269-.067c-.135,0-.269-.067-.4-.067a1.248,1.248,0,0,1-.471-.135c-.067,0-.135-.067-.269-.067h1.077a2.29,2.29,0,0,0,.673-.067h.943a.854.854,0,0,1,.4.067c.269,0,.471-.067.673-.067.337,0,.673.067,1.01.067h1.683c.2,0,.471.337.606.539,0,0,.067.067,0,.067-.067.067-.337,0-.471.067-.135,0-.337-.067-.4,0h-1.01c-.135,0-.269-.067-.337,0-.337,0-.606-.067-.943-.067H25.584A.56.56,0,0,0,25.112,51.857ZM30.5,52.934c0,.067-.135,0-.135,0-.269-.067-.539-.067-.741-.135h-.4c-.135,0-.337-.067-.471-.067h-.4c-.808-.135-1.683-.269-2.491-.4a.9.9,0,0,1-.539-.2,6.532,6.532,0,0,0,1.145.067c.337,0,.673.067,1.01.067h.673a.854.854,0,0,1,.4.067h.269a2.916,2.916,0,0,1,.337.067,5.062,5.062,0,0,1,1.01,0c.269,0,.4.337.337.539Zm.539-.943h0a.066.066,0,0,1-.067-.067,1.472,1.472,0,0,0-.2-.337,3.849,3.849,0,0,0-.471-.539,5.225,5.225,0,0,0-1.616-1.077c-.135-.067-.269-.067-.337-.135l-.4-.2a.854.854,0,0,0-.4-.067c-.135,0-.269-.067-.4-.067-.269-.067-.606-.135-.875-.2s-.606-.067-.875-.135h-.673c-1.077-.135-2.087-.2-3.165-.4-.337-.067-.673-.067-1.01-.135a5.608,5.608,0,0,1-1.01-.269c-.2-.067-.337-.067-.539-.135s-.337-.135-.539-.2c-.135-.067-.2-.135-.337-.135a.35.35,0,0,0-.269-.135c-.067,0-.067-.067-.135-.067a8.8,8.8,0,0,1-.741-.808,2.489,2.489,0,0,1-.337-.741c-.067-.135-.067-.269-.135-.4a9.53,9.53,0,0,1-.135-1.953v-.4c0-.471.067-.943.067-1.414V39.266c0-1.279,0-2.559.067-3.905V33.947c0-.269.067-.606.067-.875V31.927c0-.135-.067-.269,0-.4V29.84a1.449,1.449,0,0,1,0-.539c0-.2.067-.4.067-.673V25.8a1.483,1.483,0,0,1,.067-.539V22.03a1.831,1.831,0,0,1,0-.606V16.239c0-.067.067,0,.067-.067a2.219,2.219,0,0,1,.943,0,6.5,6.5,0,0,0,1.145,0h5.184c.135,0,.337.067.471.067h1.616a1.146,1.146,0,0,1,.471.067H28.95c.269,0,.539-.067.808-.067H30.9a1.864,1.864,0,0,1,.606.067h.471a4.445,4.445,0,0,1,.943.067.854.854,0,0,0,.4-.067H38.78c.135,0,.269.067.4.067h.471c.269,0,.539.067.741.067h.539a.854.854,0,0,1,.4.067h.539c.135,0,.269.067.4.067h3.7a.854.854,0,0,1,.067.4v3.7a2.525,2.525,0,0,0,.067.741.4.4,0,0,1-.067.269v1.616a1.146,1.146,0,0,1-.067.471c0,.269.067.539.067.741V25.4a6.924,6.924,0,0,0,.067,1.145V28.83c0,.4-.067.808-.067,1.145v1.953c0,.2.067.4.067.606,0,.606-.067,1.145-.067,1.683,0,.2.067.4.067.673a.854.854,0,0,1-.067.4V36.1a.854.854,0,0,1-.067.4v1.616c0,.4-.067.808-.067,1.145v4.04a2.762,2.762,0,0,1-.067.741v.673c0,.135-.067.269-.067.4s-.067.269-.067.4a2.914,2.914,0,0,1-.337.808,1.371,1.371,0,0,1-.471.4c-.067.067-.2.135-.269.2a3.735,3.735,0,0,1-.539.4c-.135.067-.269.067-.337.135-.269.135-.471.2-.741.337a2.814,2.814,0,0,0-.673.269c-.067,0-.135.067-.2.067a.957.957,0,0,0-.4.135.607.607,0,0,0-.337.067c-.135,0-.269.067-.4.067-.067,0-.067,0-.135.067a.247.247,0,0,0-.2.067,1.585,1.585,0,0,0-.539.135H39.79a.247.247,0,0,0-.2.067.607.607,0,0,0-.337.067h-.135a.4.4,0,0,0-.269.067.247.247,0,0,0-.2.067,1.146,1.146,0,0,0-.471.067H38.04c-.135,0-.269-.067-.4,0H36.289c-.067,0-.2,0-.2.067h-.135a.4.4,0,0,0-.269.067c-.067,0-.2,0-.2.067a5368.762,5368.762,0,0,0-.4.135h-.135a.607.607,0,0,0-.337.067.247.247,0,0,0-.2.067,1.268,1.268,0,0,0-.539.135c-.135.067-.269.067-.4.135-.269,0-.539.269-.741.4a3.759,3.759,0,0,0-.539.337A3.068,3.068,0,0,0,31.037,51.992Zm5.588.269a2.565,2.565,0,0,0-.673.2,1.146,1.146,0,0,0-.471.067c-.2,0-.4.135-.606.135h-.135a.5.5,0,0,0-.337.067c-.067,0-.337.067-.4.067a.5.5,0,0,0-.337.067H32.047c0-.2.067-.539.269-.539a8.1,8.1,0,0,1,1.279,0,5.792,5.792,0,0,0,1.077-.067.854.854,0,0,0,.4-.067h.808c.2.067.471,0,.741.067Zm2.491-.875h0a.066.066,0,0,0-.067.067,4.637,4.637,0,0,0-.539.2c-.135.067-.2.067-.269.135-.135.067-.269.067-.4.135-.135,0-.471-.067-.539,0H35.683c-.135,0-.269-.067-.4,0H33.933c-.135,0-.606-.067-.673,0h-.337c-.2,0-.337-.067-.539-.067a.857.857,0,0,1,.471-.606c.135-.067.337,0,.471,0a14.04,14.04,0,0,1,1.683,0h1.683a2.257,2.257,0,0,0,.673,0c.269,0,.539.067.875.067h.4a1.315,1.315,0,0,1,.471.067Zm2.087-1.01a.9.9,0,0,0-.337.2c-.2.135-.471.2-.673.337a.957.957,0,0,1-.4.135,3.805,3.805,0,0,1-.875,0H37.77c-.2,0-.337-.135-.539,0h-.875c-.135,0-.337-.067-.471,0h-.808a2.716,2.716,0,0,0-.741,0c-.471,0-.875-.067-1.347-.067v-.067a.9.9,0,0,0,.337-.2,2.392,2.392,0,0,1,.606-.269.957.957,0,0,1,.4-.135H39.05a.5.5,0,0,0,.337-.067c.741.067,1.279.067,1.818.135Zm.337-.337H40.06a2.245,2.245,0,0,0-.673,0c-.2,0-.471-.067-.606.067-.135,0-.337-.067-.471,0-.269,0-.539-.067-.808-.067H36.289a1.483,1.483,0,0,1,.539-.067c.269,0,.606-.067.875-.067.4,0,.875-.135,1.279-.135a2.526,2.526,0,0,0,.673-.067c.2,0,.4-.135.606-.135a1.864,1.864,0,0,0,.606-.067c.135,0,.337-.067.539-.067h1.212V49.5h0a1.409,1.409,0,0,1-.4.269c-.067.067-.2.135-.269.2-.067,0-.2.067-.269.067Z" transform="translate(-8.856 -8.9)"></path>
                    <path id="Path_20" data-name="Path 20" d="M43.237,37.179c.2-.135.4-.2.606-.337a4.676,4.676,0,0,1,.875-.337c.2-.067.471-.135.673-.2.067,0,.2-.067.269-.067.067-.067.2-.269,0-.337h-.269c-.135.067-.2.067-.337.135-.067.067-.135.067-.269.135a2.814,2.814,0,0,0-.673.269,2.729,2.729,0,0,0-.606.337c-.067.067-.135.135-.2.135-.135.067-.4.269-.4.471h0A1.471,1.471,0,0,1,43.237,37.179Z" transform="translate(-19.978 -17.721)"></path>
                    <path id="Path_21" data-name="Path 21" d="M36.99,36.339a9.555,9.555,0,0,1,1.953.673c.135.067.2.135.337.2a1.472,1.472,0,0,0,.337.2c.067,0,.135,0,.135-.067.067-.135-.606-.539-.673-.606-.2-.067-.4-.2-.606-.269-.067-.067-.135-.067-.2-.135-.135-.067-.269-.067-.4-.135s-.337-.135-.471-.2a.247.247,0,0,1-.2-.067,2.863,2.863,0,0,0-.741-.135c-.135.135-.135.269,0,.337C36.518,36.271,36.788,36.271,36.99,36.339Z" transform="translate(-17.838 -17.688)"></path>
                    <g id="Group_2" data-name="Group 2" transform="translate(7.773 7.646)">
                      <path id="Path_22" data-name="Path 22" d="M49.016,30.856v-.875a.4.4,0,0,0-.067-.269c0-.2.067-.4.067-.606v-.471c0-1.279-.067-2.491,0-3.7V20.622h0c0-.067-.2,0-.2,0H47.736c-.269,0-.471-.067-.741-.067h-.471a.854.854,0,0,1-.4-.067H44.774c-.135,0-.471-.067-.539,0h-.673a1.831,1.831,0,0,0-.606,0h-.673c-.269,0-.471-.067-.741-.067-.2.067-.471-.067-.673.067H39.589c-.135,0-.337-.067-.471-.067H37.1a3.278,3.278,0,0,0-.808-.067h-.135a.4.4,0,0,0-.269.067h-2.9a3.232,3.232,0,0,0-.808,0H31.106c-.2,0-.471-.067-.673-.067H27.874a2.245,2.245,0,0,0-.673,0c-.2,0-.471-.067-.606,0a5.443,5.443,0,0,1-1.077-.067c-.135,0-.337-.067-.471,0h-3.03a2.244,2.244,0,0,0-.673,0,.5.5,0,0,0-.337.067c-.135.135-.067.606-.067.808v2.828a.854.854,0,0,1-.067.4v.4a.854.854,0,0,1-.067.4v.808a9.91,9.91,0,0,0,0,1.414v.741a.607.607,0,0,1-.067.337v3.367a1.482,1.482,0,0,1-.067.539v2.828a2.076,2.076,0,0,1-.067.673v2.828c0,.2-.067.4-.067.673v1.077c0,.875-.067,1.683-.067,2.491,0,.4-.067.741-.067,1.077v2.155c0,.135.067.2.067.337s-.067.2-.067.337.067.2.067.4a5.21,5.21,0,0,0,.471,2.761,2.772,2.772,0,0,0,1.414,1.077,5.729,5.729,0,0,0,1.145.4,3.94,3.94,0,0,0,.875.135,2.42,2.42,0,0,0,.741.135c.269,0,.471.067.673.067.471.067,1.01.135,1.481.2a2.762,2.762,0,0,1,.741.067c.135,0,.2.067.337.067h.539c.2,0,.4.067.606.067h.337c.067,0,.2.067.269.067.269.067.471.067.741.135.067,0,.135.067.269.067.2.067.337.067.539.135.269.067.471.2.741.269.2.067.337.2.539.269.067.067.2.135.269.2.2.135.4.2.606.337a4.357,4.357,0,0,1,.539.606c.067.067.067.135.2.2h.067c0-.067.067-.067.135-.135s.067-.135.135-.2a4.855,4.855,0,0,1,1.683-1.414c.067-.067.2-.067.269-.135.135-.067.269-.067.337-.135.269-.067.471-.135.741-.2.471-.135.943-.2,1.414-.337h.337c.2,0,.337-.067.539-.067h.741a3.941,3.941,0,0,0,.875-.135,3.278,3.278,0,0,0,.808-.067c.269-.067.471-.067.741-.135h.2c.337-.067.741-.135,1.077-.2.135,0,.2-.067.337-.067a5.925,5.925,0,0,0,1.01-.337c.269-.067.539-.2.808-.269l.606-.4a2.143,2.143,0,0,0,1.01-.875,1.086,1.086,0,0,0,.2-.606v-.269a8.585,8.585,0,0,0,.067-1.347V45.333c0-.135.067-.2.067-.337a.607.607,0,0,0-.067-.337c0-.135.067-.269.067-.4v-3.3c0-1.212,0-2.559.067-3.771V35.772c0-.2-.067-.4-.067-.673a.854.854,0,0,1,.067-.4V31.866a.607.607,0,0,1,.067-.337v-.539C49.016,31.193,49.016,31.058,49.016,30.856ZM39.051,21.7c.067-.067.135-.067.2-.135s.067-.135.135-.2c.135-.135.2-.269.337-.4l.135-.135c.067-.067.2,0,.337,0h.673a.4.4,0,0,0,.269-.067h.471c.2,0,.337.067.539.067.135,0,.269-.067.471-.067h.741a6.348,6.348,0,0,1-.673.673c-.4.4-.808.808-1.279,1.212l-.269.269c-.4.4-.741.808-1.077,1.145l-.4.4-.2.2c-.067.135-.2.2-.269.337a7.681,7.681,0,0,1-.741.741c-.135.135-.2.269-.337.4-.269.269-.539.471-.808.741-.471.4-.875.875-1.347,1.279-.135.135-.269.337-.471.4h0v-.606c0-.067.067-.135.067-.2,0-.135-.067-.269,0-.337s.135-.135.2-.135c.135-.135.2-.269.337-.337s.337-.135.471-.2c.067-.067.2-.135.269-.2a2.1,2.1,0,0,0,.606-.471c.067-.067.067-.2.135-.269s.135-.135.135-.2a.607.607,0,0,0,.067-.337.973.973,0,0,0,.135-.471c0-.135-.067-.269-.067-.471s-.135-.337-.269-.539c-.067-.067-.135-.135-.135-.2-.067,0,0-.067,0-.067,0-.067.067-.067.067-.135a1.815,1.815,0,0,1,.471-.539c.135-.067.135-.2.2-.269.067-.135.2-.135.337-.269.067-.067.067-.135.135-.2s.067-.135.135-.2.135-.067.2-.135ZM40.4,33.954c0,.135-.067.2-.067.337V35.1a2.525,2.525,0,0,1-.067.741c0,.269.067.471.067.673,0,.135-.067.337-.067.471s.067.337.067.471v.673a1.864,1.864,0,0,1-.067.606H40.2V38.6c0-.269-.067-.606-.067-.875V36.31c0-.2-.067-.471-.067-.673a.509.509,0,0,1,.067-.269V34.56c0-.067-.067-.135-.135-.2h0l-.067.067a.607.607,0,0,1-.067.337v.673c0,.135.067.269.067.4a.607.607,0,0,1-.067.337,1.146,1.146,0,0,1-.067.471v.471a5.1,5.1,0,0,1-.067,1.01c-.067,0-.135-.135-.135-.2V36.31a2.728,2.728,0,0,0,0-.741c0-.067,0-.2-.135-.2h-.067a2.257,2.257,0,0,0,0,.673,4.446,4.446,0,0,1-.067.943,1.312,1.312,0,0,1-.067.539h0c-.067,0-.067-.067-.067-.135V35.637a1.864,1.864,0,0,1,.067-.606v-.673a28.1,28.1,0,0,1,.067-3.367V29.914a.5.5,0,0,1,.067-.337c.067.135,0,.337.067.471a3.291,3.291,0,0,0,.067.875h.067a.247.247,0,0,1,.067-.2c0-.337.067-.606.067-.943h.067v.337c0,.471-.067.943-.067,1.414V31.8c0,.135-.067.269,0,.337,0,.067.067.135.2.135v-.4c0-.135.067-.269.067-.4V30.25h.067c.067,0,0,.2,0,.2v.269c0,.2.067.337.067.539v1.885A1.227,1.227,0,0,1,40.4,33.954ZM38.983,47.285h-3.1c-.135,0-.4-.067-.539,0h-1.01a1.831,1.831,0,0,0-.606,0H31.914c-.269,0-.539.067-.673-.2a.093.093,0,0,1,0-.135,8.181,8.181,0,0,1,1.818,0c.4,0,.741-.067,1.145-.067.539,0,1.077.067,1.549.067h2.693V45.535a3.278,3.278,0,0,1,.067-.808c.337.135.269.539.269.943v.673a.854.854,0,0,1-.067.4A.391.391,0,0,1,38.983,47.285Zm-1.953-2.491c.067.135.673.741.606.875a.066.066,0,0,0-.067.067H36.155c0-.067.067-.135.067-.2.067-.2.471-.673.471-.875a.145.145,0,0,0-.135-.135,3.244,3.244,0,0,0-.808,0c-.135,0-.471-.067-.539,0-.269,0-1.145-.135-1.279.067v.135l.4.606c.067.135.135.2.2.337H32.856V45.6s.808-.943.875-1.077v-.067a.4.4,0,0,1-.269-.067H31.577c0-.067.673-.673.741-.808.539-.606,1.145-1.145,1.751-1.751l.606-.606c.067-.067.135-.135.2-.135v-.067a.811.811,0,0,1,.337.337l.539.539.337.337c.471.539,1.01,1.01,1.549,1.549a6.347,6.347,0,0,1,.673.673H37.5a2.291,2.291,0,0,0-.673.067C36.829,44.659,36.963,44.727,37.031,44.794Zm-1.751.875a4.528,4.528,0,0,1,.471-.741c0-.067.067-.067.135-.067h.269a2.562,2.562,0,0,1-.606.875.7.7,0,0,0-.269-.067ZM32.318,45.6c-.135.067-.269,0-.4,0,0-.2.741-.673.875-.808h.269A2.791,2.791,0,0,1,32.318,45.6Zm6.06-6.329a1.146,1.146,0,0,0-.471.067c-.135,0-.337-.067-.471,0H37.3a1.146,1.146,0,0,0-.471.067.247.247,0,0,0-.2.067h-.943a.4.4,0,0,0-.269.067c-.067,0,0,.135,0,.135a.664.664,0,0,1-.606.673.647.647,0,0,1-.606-.471.4.4,0,0,0-.067-.269A.235.235,0,0,0,34,39.542H33.53c-.337,0-.606-.067-.943-.067h-.943a.5.5,0,0,0-.337.067H29.894c-.135,0-.2,0-.269-.067,0-.067.067-.135.067-.2a1.208,1.208,0,0,1,.337-.471c.135-.067.2-.2.337-.269a2.569,2.569,0,0,1,1.885-.2.514.514,0,0,1,.337.135,2.884,2.884,0,0,1,1.077.337c.2.135.4.337.606.471.067.067.135.067.135.135a.572.572,0,0,0,.337.2c.2,0,.269-.269.4-.337a2.851,2.851,0,0,1,.471-.337,12.755,12.755,0,0,1,1.414-.606c.2-.067.337-.067.539-.135a.607.607,0,0,0,.337-.067h.471a1.5,1.5,0,0,1,.741.337l.269.269a1.466,1.466,0,0,1,.337.539h0c0,.067-.135,0-.2,0Zm-9.022-2.491c0-.2.067-.337.067-.539a1.864,1.864,0,0,0-.067-.606c0-.337.067-.673.067-1.01V33.55a1.314,1.314,0,0,0-.067-.471c0-.269.067-.471.067-.673V31.8c0-.269.067-.539.067-.875V30.25a3.188,3.188,0,0,1,.741-.875h0c.067.135,0,.337,0,.539v3.569a6.487,6.487,0,0,0,0,1.145.854.854,0,0,0,.067.4v1.953a2.567,2.567,0,0,1-.067,1.01c0,.067-.135.135-.135.2-.067.067-.135.2-.2.269l-.2.2-.2.4h0c0-.337-.067-.741-.067-1.145,0-.2.067-.471.067-.673A.973.973,0,0,1,29.355,36.782Zm1.212-1.347a1.483,1.483,0,0,1,.067-.539V33.684c0-.2-.067-.4-.067-.539,0-.269.067-.539.067-.808V29.173c.067-.067.2-.067.337-.135h.943a2.392,2.392,0,0,1,.673.135c.135,0,.269.067.4.067.135.067.269.067.337.135a1.907,1.907,0,0,1,1.145.741,1.579,1.579,0,0,1,.135.808c.067.875,0,1.751,0,2.626v2.289a8.585,8.585,0,0,1-.067,1.347,3.557,3.557,0,0,1-.067.875c-.067.269,0,.471-.135.673h0c-.067,0-.539-.4-.606-.4a5.277,5.277,0,0,0-.943-.337,2.291,2.291,0,0,0-.673-.067,3.839,3.839,0,0,0-.875-.067h-.135a9395.348,9395.348,0,0,0-.4.135h-.2c0-.2.067-.337.067-.539,0-.135-.067-.269-.067-.471a1.482,1.482,0,0,1,.067-.539Zm4.04-9.426v-.269c0-.067.067-.067.135-.135.067,0,.135,0,.135.067.067.067.471.4.471.471,0,.135-.337.4-.4.4s-.067-.067-.135-.067-.067-.067-.135-.067A.854.854,0,0,1,34.607,26.009Zm-.2-.337c-.067.067-.2.2-.269.2s-.135-.067-.2-.067a.765.765,0,0,1-.2-.539.235.235,0,0,1,.067-.135c.067-.135,0-.2.135-.337.135.067.673.4.606.673C34.607,25.537,34.472,25.6,34.4,25.672Zm.067,1.077h0c0,.067-.067,0-.135,0-.269-.067-.606-.135-.4-.471.067,0,.067,0,.135.067s.067.135.135.2C34.338,26.547,34.472,26.615,34.472,26.749Zm-1.347-2.491s.135-.2.2-.2h0c.269.135.471.471.2.741-.067.067-.135.135-.2.135-.2.067-.135-.269-.135-.337A1.37,1.37,0,0,0,33.126,24.258Zm.471-.4h0c.067-.067.067-.067.135-.067a1.609,1.609,0,0,0,.606-.2.247.247,0,0,1,.2.067c.135.2-.4.539-.539.539C33.8,24.191,33.732,23.989,33.6,23.854ZM33.26,25.47h.135l.471.471c0,.135-.269.337-.4.337-.067,0-.067-.067-.135-.135A1.046,1.046,0,0,1,33.26,25.47ZM35.819,25h.135c.2.067.337.337.269.471-.067.067-.135.2-.2.269s-.135.135-.2.135c-.135,0-.067-.269-.067-.337.067-.067.135-.135.135-.2C35.886,25.2,35.819,25.133,35.819,25Zm.269-.808c-.067.067-.135.135-.2.135-.135,0-.2-.2-.269-.269s-.269-.135-.269-.269c0-.067.067-.067.135-.135h0c.135,0,.2.067.337.135s.269.067.4.135c0,0,.067.067,0,.067C36.223,24.123,36.155,24.191,36.088,24.191Zm-.269,2.424c0,.135-.337.2-.471.135-.135-.135.135-.337.2-.337S35.819,26.547,35.819,26.615Zm3.3,3.232c0,.135.067.2.067.337v6.8a4.4,4.4,0,0,1,0,.943c-.135,0-.2-.067-.337-.067a1.938,1.938,0,0,0-.875-.067H37.7c-.135,0-.337.067-.4.067a.94.94,0,0,0-.606.2,1.353,1.353,0,0,0-.539.269,2.729,2.729,0,0,1-.606.337c0,.067-.067-.067-.067-.067a3.6,3.6,0,0,1-.2-1.481V33.146a.607.607,0,0,1,.067-.337V32a1.482,1.482,0,0,1,.067-.539,5.792,5.792,0,0,1,.067-1.077.5.5,0,0,1,.135-.4,2.851,2.851,0,0,1,.471-.337,6.425,6.425,0,0,1,2.02-.606,1.146,1.146,0,0,0,.471-.067h.741c.067,0,.067.135.067.2C39.118,29.577,39.051,29.712,39.118,29.846Zm-2.02-6.8h0a.247.247,0,0,1-.067-.2c0-.2.2-.269.269-.4C37.569,22.642,37.233,22.911,37.1,23.046Zm.135,2.222a.37.37,0,0,1-.2.337h-.067c0-.135.2-.269.269-.337ZM36.9,25c-.067.067-.067.067-.135.067s-.067-.067-.135-.135v-.741c0-.067.135-.135.2-.2a.371.371,0,0,1,.135.337C37.1,24.595,37.165,24.8,36.9,25Zm-.269,1.145h0c0,.135-.269.269-.337.2-.135-.135,0-.2.067-.269C36.492,26.076,36.627,26.076,36.627,26.143Zm1.481-4.713c.067-.067.135-.2.2-.269l.2-.2c.135,0,.269.067.4.067v.067c-.2,0-.741.673-.875.875-.067.067-.135.269-.2.269h-.2c-.135-.067-.067-.2,0-.337a.247.247,0,0,1,.067-.2.235.235,0,0,0,.135-.067A.929.929,0,0,0,38.108,21.43Zm-1.279.471a.732.732,0,0,1,.067-.337c.067-.135.2-.135.337-.269a.51.51,0,0,0,.135-.269.35.35,0,0,1,.269-.135h.2c0,.067-.135.2-.2.269-.067.135-.135.2-.2.337s-.135.2-.2.337c-.067.067-.067.2-.135.269l-.135.135-.135.135-.135.135c-.067.067-.067.269-.2.337a.413.413,0,0,1-.4.067h-.067a2.362,2.362,0,0,1,.337-.539c.067-.067.135-.067.2-.135s0-.135.067-.2S36.761,21.969,36.829,21.9Zm-1.549.471c0-.135.067-.2.067-.269,0-.135-.067-.269-.067-.4,0-.067.135-.135.135-.269s0-.2.067-.269.606,0,.741-.135h.337v.067l-.067.067c-.135.2-.2.471-.337.673-.067.067-.067.2-.135.269s-.067.2-.135.269c-.135.2-.337.539-.606.539h0c-.067,0,0-.2,0-.2A.526.526,0,0,0,35.28,22.373Zm.269,2.222a1.182,1.182,0,0,1-.269.337.858.858,0,0,1-.4.269c-.135,0-.337-.606-.337-.741,0-.067.269-.269.269-.337h.2A.77.77,0,0,1,35.549,24.595Zm-1.818-3.636c.067-.067.337,0,.471-.067a1.864,1.864,0,0,0,.606.067v.269a.247.247,0,0,0,.067.2.247.247,0,0,1-.067.2c0,.337-.067.606-.067.943v.539h0c-.269,0-.539-.741-.606-.943a.929.929,0,0,1-.2-.269C33.8,21.7,33.53,21.161,33.732,20.959Zm-1.549.135h0c.067-.135.337-.135.471-.2h.337a1.249,1.249,0,0,1,.471.808c.067.135.2.337.269.471a.51.51,0,0,1,.135.269.572.572,0,0,1,0,.539h-.2a14.1,14.1,0,0,1-1.481-1.885Zm-.808-.135c.135,0,.2.067.337.2a3.735,3.735,0,0,1,.4.539c.067.067.067.2.2.269.067.135.2.2.269.337s.2.2.269.337c0,.067.067.067.067.135.067.067.135.135.2.135a1.208,1.208,0,0,1,.337.471l-.067.067a2.916,2.916,0,0,1-.337-.067l-.4-.4c-.067-.067-.2-.135-.269-.2a3.735,3.735,0,0,0-.4-.539,1.471,1.471,0,0,0-.337-.2h0c-.135-.135-.135-.269-.2-.337-.067-.135-.269-.2-.337-.337h0C31.173,21.026,31.308,20.959,31.375,20.959Zm-3.7-.067h1.885a.247.247,0,0,1,.2.067c.135,0,.337-.067.471-.067.2.067.337.269.471.4l.606.606c.135.135.269.337.4.471a3.372,3.372,0,0,0,.539.471c.135.135.135.2.269.337.067.067.135.067.2.135a.672.672,0,0,1,.269.337c-.067,0-.135.135-.2.2a2.362,2.362,0,0,0-.337.539.4.4,0,0,1-.067.269c0,.135-.067.269-.067.471,0,.135.067.2.067.337.067.135.067.2.135.337s.067.269.135.337a.35.35,0,0,0,.269.135l.2.2c.067.067.135.067.2.135a.93.93,0,0,1,.269.2,1.409,1.409,0,0,1,.4.269c.067.135.135.2.2.337.067.067.2.135.2.269,0,.067.067.135.067.269v.269a.951.951,0,0,1,.067.606c-.135,0-.471-.4-.606-.539-.269-.2-.471-.471-.741-.673a4.063,4.063,0,0,0-.539-.539c-.337-.337-.741-.673-1.077-1.077a4.356,4.356,0,0,1-.539-.606c-.067-.067-.135-.2-.269-.269-.673-.606-1.279-1.279-1.885-1.885a4.063,4.063,0,0,0-.539-.539c-.337-.337-.673-.741-1.077-1.077-.2-.2-.606-.4-.673-.673A7.438,7.438,0,0,1,27.672,20.891Zm5.184,4.377c-.2.067-.135-.337-.135-.471C32.856,24.864,33.126,25.2,32.856,25.268ZM23.5,40.215c-.269.269-.539.606-.808.875L21.477,42.3c-.135.135-.337.269-.4.471h0c0,.067-.067-.067-.067-.067v-7a.854.854,0,0,1,.067-.4v-.875a2.291,2.291,0,0,1,.067-.673V32.27a2.291,2.291,0,0,1,.067-.673V27.625c.2.067.337.269.539.471l1.01,1.01c.135.135.2.269.337.4a7.682,7.682,0,0,1,.741.741c.067.067.135.2.269.269a3.848,3.848,0,0,0,.539.471l.2.2c.4.4.808.741,1.212,1.077.4.4.741.808,1.145,1.145.269.2,1.751,1.616,1.683,1.885,0,.067-.067.067-.067.135a3.6,3.6,0,0,1-.875.875c-.067.067-.135.2-.269.269L27,37.253l-.943.943-.606.606c-.067.067-.135.135-.135.2A4.328,4.328,0,0,0,23.5,40.215Zm8.349,9.359a3.232,3.232,0,0,0-.808,0c-.067,0-.067.067-.067.135v2.357a.235.235,0,0,1-.067.135h0c-.135,0-.337-.067-.471-.067h-.4a.607.607,0,0,1-.337-.067c-.2,0-.4-.067-.606-.067h-.269a9.125,9.125,0,0,1-1.347-.135,1.864,1.864,0,0,1-.606-.067c-.135,0-.337-.067-.471-.067h-.606c-.2-.067-.471-.067-.741-.135a.726.726,0,0,1-.539-.135h0v-.067h0l.471-.471.4-.4a6.071,6.071,0,0,1,.673-.606l.337-.337.269-.269c.539-.539,1.077-1.01,1.616-1.549.337-.337.606-.673.943-1.01.471-.471.943-.875,1.347-1.347l.4-.4a2.716,2.716,0,0,1,0,.741v1.212l.2.4c.067.067.067.135.135.2a2.076,2.076,0,0,0,.673.067h.875a2.14,2.14,0,0,1-.2.606,4.675,4.675,0,0,0-.337.875c-.067.135-.067.269-.135.337s-.135,0-.2.067C31.914,49.507,31.914,49.507,31.846,49.574Zm1.347,3.434a1.21,1.21,0,0,1-.606-.269c-.135-.067-.337-.067-.471-.2h0a7.325,7.325,0,0,0,1.751-.067c.067-.067.067-.337.067-.4,0-.606-.067-1.481.539-1.818a.4.4,0,0,1,.269-.067c.135,0,.539.067.539.269,0,.067-.067.067-.135.067-.4.067-.471.269-.606.539A2.292,2.292,0,0,0,34.4,52v.943h0c0,.067-.2,0-.269,0-.135,0-.2,0-.269.067A2.257,2.257,0,0,1,33.193,53.008Zm2.559.067c-.067.135-.269.269-.4.4a.93.93,0,0,0-.2.269,3.372,3.372,0,0,0-.471.539h0a1.785,1.785,0,0,1-.337-.4,2.046,2.046,0,0,0-.471-.337h0c0-.067,0,0,.067,0a.247.247,0,0,0,.2-.067h.673V51.931c0-.135.067-.2.067-.337a.957.957,0,0,1,.135-.4c.067-.135.2-.067.337-.135a.066.066,0,0,1,.067.067c.067.135,0,.269,0,.471V52.6c0,.067.067.135.067.2a.247.247,0,0,1,.269.269Zm1.212-.471c-.067,0-.135.067-.2.067a2.016,2.016,0,0,0-.539.269h0a.722.722,0,0,1-.135-.4h.269a2.077,2.077,0,0,1,.606.067Zm.673-3.1c-.135.067-.269-.067-.337-.135-.067-.135-.135-.2-.135-.337a4.64,4.64,0,0,0-.2-.539.957.957,0,0,1-.135-.4c0-.067.067-.135.135-.2.067,0,.067,0,.135.067a.247.247,0,0,1,.067.2c.067.2.135.337.2.539a2.392,2.392,0,0,0,.269.606S37.7,49.44,37.637,49.507Zm1.279,2.424a.514.514,0,0,1-.337.135V50.113a.066.066,0,0,1,.067-.067c.135,0,.2,0,.269.067,0,0,.067.2,0,.269v.875A.782.782,0,0,1,38.916,51.931Zm5.925-.673a.247.247,0,0,0-.2.067c-.067,0-.269.067-.4.067a.973.973,0,0,0-.471.135c-.135,0-.2.067-.337.067a.247.247,0,0,0-.2.067h-.269a.5.5,0,0,0-.337.067h-.135a1.313,1.313,0,0,0-.539.067h-.2a.509.509,0,0,1-.269-.067c0,.067-.2.067-.269.067h-.539a.854.854,0,0,0-.4.067.4.4,0,0,0-.269.067c-.135,0-.471.067-.539,0a5.71,5.71,0,0,1-.067-1.549v-.337c0-.135.067-.539-.2-.471h-.471a1.313,1.313,0,0,1-.539-.067,2.851,2.851,0,0,1-.269-.808,3.382,3.382,0,0,1-.337-.875v-.135h.4c.2,0,1.279,0,1.347-.135.067-.067,0-.4,0-.539v-.539a3.806,3.806,0,0,1,0-.875c.673.741,1.414,1.414,2.087,2.087a.93.93,0,0,1,.2.269,3.371,3.371,0,0,0,.539.471c.471.471.943.943,1.347,1.414l1.077,1.077c.067.067.2.135.2.2C44.976,51.19,44.841,51.258,44.841,51.258Zm3.838-18.179c0,.2.067.4.067.539a.607.607,0,0,1-.067.337v.875c0,.135.067.337.067.471,0,.2-.067.4-.067.673s.067.539.067.808a1.146,1.146,0,0,1-.067.471v3.5a.4.4,0,0,1-.067.269V41.7c0,.135.067.808-.067.808a9.071,9.071,0,0,1-.808-.808c-.808-.808-1.549-1.616-2.357-2.357-.135-.135-.2-.269-.337-.4l-.337-.337-.2-.2c-.741-.741-1.481-1.481-2.289-2.222l-1.145-1.145v-.067c.067-.2.4-.4.539-.539a3.111,3.111,0,0,1,.471-.471l.4-.4c.067-.067.135-.067.135-.135a1.785,1.785,0,0,0,.337-.4l.337-.337c.135-.135.2-.269.337-.4s.269-.2.4-.337l.539-.539a4.355,4.355,0,0,1,.606-.539c.4-.4.741-.808,1.145-1.212a19.855,19.855,0,0,0,1.683-1.683,3.11,3.11,0,0,0,.471-.471c.067.135,0,.471.067.673v2.02a2.076,2.076,0,0,1-.067.673v1.077A2.3,2.3,0,0,1,48.679,33.078Z" transform="translate(-20.4 -20.256)"></path>
                      <path id="Path_23" data-name="Path 23" d="M48.979,36.7c-.067.135-.067.269.067.269h0C49.181,36.969,49.113,36.767,48.979,36.7Z" transform="translate(-29.722 -25.628)"></path>
                      <path id="Path_24" data-name="Path 24" d="M49,38.535a.145.145,0,0,0-.135-.135,1.313,1.313,0,0,0-.067.539V40.42c0,.135.135-.067.135-.067A3.575,3.575,0,0,0,49,39.141.928.928,0,0,0,49,38.535Z" transform="translate(-29.678 -26.183)"></path>
                      <path id="Path_25" data-name="Path 25" d="M49.559,39c-.135.2-.067.4-.067.673a1,1,0,0,0,.067.471h.067c.2,0,.2-.943.135-1.077A.247.247,0,0,0,49.559,39Z" transform="translate(-29.899 -26.379)"></path>
                    </g>
                    <path id="Path_26" data-name="Path 26" d="M42.745,40.749a.35.35,0,0,0,.269-.135,7.348,7.348,0,0,0,.741-.4,4.289,4.289,0,0,1,.471-.135c.2-.067.471-.135.673-.2a2.14,2.14,0,0,0,.606-.2.35.35,0,0,0,.135-.269.179.179,0,0,0-.2-.2h0a.711.711,0,0,0-.337.135,2.14,2.14,0,0,0-.606.2,5.016,5.016,0,0,0-1.683.875c-.067.067-.269.2-.135.269C42.678,40.749,42.678,40.749,42.745,40.749Z" transform="translate(-19.89 -18.799)"></path>
                    <path id="Path_27" data-name="Path 27" d="M38.89,40.275A5.591,5.591,0,0,0,36.6,39.4h0c-.2,0-.269.337-.135.4a1.313,1.313,0,0,0,.539.067.607.607,0,0,1,.337.067,3.333,3.333,0,0,1,.875.269,2.392,2.392,0,0,1,.606.269,6.147,6.147,0,0,0,.875.539h.067c.067,0,0-.067,0-.135A6.829,6.829,0,0,0,38.89,40.275Z" transform="translate(-17.853 -18.864)"></path>
                    <path id="Path_28" data-name="Path 28" d="M45.252,42.8c-.337.135-.673.2-1.01.337-.067.067-.135.067-.269.135a2.023,2.023,0,0,0-.741.4l-.606.4c-.067.067-.2.135-.135.2.067.135.2-.067.269-.067a6.35,6.35,0,0,1,1.549-.673c.2-.067.337-.067.539-.135s.4-.067.539-.135.2-.337,0-.4C45.454,42.8,45.319,42.8,45.252,42.8Z" transform="translate(-19.838 -19.975)"></path>
                    <path id="Path_29" data-name="Path 29" d="M39.46,44.412a4.747,4.747,0,0,0-.606-.471c-.067,0-.135-.067-.2-.067l-1.01-.4c-.135-.067-.269-.067-.337-.135a.854.854,0,0,0-.4-.067c-.135,0-.269-.067-.4-.067h0c-.269,0-.269.337-.067.471H36.5a2.291,2.291,0,0,0,.673.067,1.966,1.966,0,0,1,.606.135c.135,0,.269.067.4.067.337.135.741.269,1.077.4a1,1,0,0,0,.471.2C39.595,44.479,39.527,44.412,39.46,44.412Z" transform="translate(-17.817 -20.105)"></path>
                  </g>
                  <g id="Group_4" data-name="Group 4">
                    <path id="Path_30" data-name="Path 30" d="M4.04,32.657c.471.135.673.067.741-.337h.135L4.579,33.8H4.444c.067-.269,0-.471-.539-.606L.673,32.522l-.135.606q-.2.808.4,1.01v.135L0,34v-.135c.067-.067.135-.135.135-.2.067-.067.067-.2.135-.4l.471-2.155a1.093,1.093,0,0,0,0-.673V30.3l.943.2v.067c-.337,0-.673.067-.808.741l-.135.606Z" transform="translate(0 -9.899)"></path>
                    <path id="Path_31" data-name="Path 31" d="M5.091,24.873l1.077.539c.471.2.673.2.808-.135l.135.067L6.438,26.69,6.3,26.623c.135-.269.135-.471-.4-.741L3.543,24.805c-.471-.2-.673-.2-.808.135L2.6,24.873l.673-1.347.135.067c-.135.269-.067.471.4.741l1.077.471L5.9,22.718l-1.077-.539c-.471-.2-.673-.2-.808.135l-.135-.067L4.553,20.9l.135.067c-.135.337-.067.539.4.741l2.357,1.145c.471.2.673.2.808-.135l.135.067-.673,1.347-.135-.067c.135-.269.135-.471-.4-.741L6.1,22.785Z" transform="translate(-0.849 -6.828)"></path>
                    <path id="Path_32" data-name="Path 32" d="M11.871,15.618l-.067.067c-.337-.135-.4-.135-.673.2l-.673.808,1.145.943c.135.135.269.135.4-.067l.471-.539c.4-.471.471-.606.2-1.145l.067-.067.471.673L11.265,18.85l-.067-.067c.2-.269.2-.4-.2-.808l-2.02-1.683c-.4-.337-.606-.337-.808-.067L8.1,16.157,10.053,13.8l.539.471-.067.067c-.4-.2-.539-.135-.875.2l-.808.943,1.414,1.145L11,15.685c.2-.2.2-.337,0-.606l.067-.067Z" transform="translate(-2.646 -4.508)"></path>
                    <path id="Path_33" data-name="Path 33" d="M23.313,7.6a1.8,1.8,0,0,1-.875,1.279,1.326,1.326,0,0,1-1.953-.539l-1.01-1.818c-.337-.539-.539-.539-.808-.4L18.6,5.987l1.347-.741.067.135c-.337.2-.337.337-.067.808l1.077,1.885a1.051,1.051,0,0,0,1.481.471,1.651,1.651,0,0,0,.741-1.212L21.967,5.112c-.269-.4-.4-.539-.741-.337l-.135-.135L22.371,3.9l.067.067c-.337.2-.337.4-.067.808L23.65,7.065c.269.471.471.539.741.337l.067.135-.875.539Z" transform="translate(-6.076 -1.274)"></path>
                    <path id="Path_34" data-name="Path 34" d="M33.248,4.809h-.135L29.275,1.981h0l.741,2.9c.135.4.337.539.673.4v.135l-1.212.337V5.617c.337-.067.471-.269.337-.808l-.606-2.424c-.135-.471-.337-.673-.808-.606V1.645l1.077-.269,3.367,2.559h0L32.171,1.51C32.036.971,31.834.9,31.5.971V.837L32.709.5V.635c-.4.135-.471.269-.337.808Z" transform="translate(-9.278 -0.163)"></path>
                    <path id="Path_35" data-name="Path 35" d="M40.112,3.5c0,.539.135.673.539.673v.135L39.1,4.377V4.242c.337,0,.471-.135.471-.673L39.439.943C39.439.4,39.3.269,38.9.269V.135L40.449,0V.135c-.337,0-.471.2-.471.673Z" transform="translate(-12.708)"></path>
                    <path id="Path_36" data-name="Path 36" d="M46.316,4.611h-.135l-.875-3.569C45.171.5,45.1.3,44.7.235V.1l1.549.135V.369c-.269-.067-.471.135-.4.471l.673,2.828,1.347-2.491c.2-.337.135-.606-.269-.606V.437l1.212.135V.706c-.337-.067-.606.2-.875.741Z" transform="translate(-14.603 -0.033)"></path>
                    <path id="Path_37" data-name="Path 37" d="M55.432,5.2,55.3,5.134c.067-.4,0-.4-.4-.606l-1.01-.337-.471,1.414c-.067.2,0,.269.2.4l.673.269c.606.2.741.269,1.145-.2l.135.067-.471.673L52.2,5.74l.067-.135c.337.135.471.067.673-.471l.943-2.491c.2-.471.135-.673-.2-.808l.067-.135,2.9,1.077-.269.673h-.067c.067-.471-.067-.539-.471-.741l-1.145-.4-.606,1.683,1.145.4a.462.462,0,0,0,.606-.2l.135.067Z" transform="translate(-17.053 -0.555)"></path>
                    <path id="Path_38" data-name="Path 38" d="M62.7,6.141l.4.269a.963.963,0,0,1,.337,1.414.889.889,0,0,1-1.347.269l-.4-.269ZM61.485,7.891l.269.2c.673.4.269,1.414.4,2.626l.741.471.067-.135c-.539-.4,0-1.751-.4-2.626a.981.981,0,0,0,1.279-.4A1.194,1.194,0,0,0,63.3,6.343L61.889,5.4l-.067.135c.269.2.337.337.067.808L60.408,8.565c-.337.471-.471.471-.741.269l-.067.135,1.279.808.067-.135c-.269-.2-.337-.4,0-.808Z" transform="translate(-19.471 -1.764)"></path>
                    <path id="Path_39" data-name="Path 39" d="M70.605,13.958l-.067-.067a.865.865,0,0,0-.067-1.279c-.337-.337-.741-.4-1.01-.067-.539.539.067,1.481.067,2.357a1.163,1.163,0,0,1-.337.875,1.179,1.179,0,0,1-1.683,0c-.337-.337-.4-.741-.539-.875a.126.126,0,0,0-.2,0l-.067-.067.808-.808.067.067a1.045,1.045,0,0,0,0,1.481.778.778,0,0,0,1.145.067c.539-.539-.067-1.549,0-2.222a1.086,1.086,0,0,1,.4-.875,1.1,1.1,0,0,1,1.616.067c.337.337.337.606.471.673.067.067.067.067.135,0l.067.067Z" transform="translate(-21.79 -3.993)"></path>
                    <path id="Path_40" data-name="Path 40" d="M72.379,20.128c-.4.269-.471.471-.269.808L71.975,21,71.1,19.724l.135-.067c.2.269.4.337.808,0L74.2,18.175c.471-.337.471-.471.269-.808L74.6,17.3l.875,1.279-.135.067c-.2-.269-.4-.269-.808,0Z" transform="translate(-23.228 -5.652)"></path>
                    <path id="Path_41" data-name="Path 41" d="M75.645,25.6c-.471.2-.539.337-.4.673l-.135.067L74.5,25l.135-.067c.135.269.269.4.808.135l2.963-1.347-.269-.539c-.269-.539-.471-.673-.943-.539l-.067-.135L78,22.1l.067.135V22.5a2.648,2.648,0,0,0,.135.4l.943,2.02a.915.915,0,0,0,.4.539l.067.135-.875.4-.067-.067c.269-.2.471-.471.2-1.077l-.269-.606Z" transform="translate(-24.338 -7.22)"></path>
                    <path id="Path_42" data-name="Path 42" d="M78.21,33.5c-.471.135-.606.269-.539.606h-.135L77.2,32.62h.135c.067.337.2.471.741.337l1.279-.269,1.212-1.212c.4-.4.471-.539.4-.875h.135l.337,1.616h-.135c-.067-.471-.269-.471-.471-.269l-1.077,1.145,1.212.4c.337.135.673.067.606-.269h.135l.269,1.145h-.135c-.067-.337-.2-.4-.606-.539l-1.683-.606Z" transform="translate(-25.22 -9.997)"></path>
                    <path id="Path_43" data-name="Path 43" d="M3.009,50.564a1.815,1.815,0,0,1,2.424,1.01c.2.875-.337,1.751-1.616,2.087a1.865,1.865,0,0,1-2.424-1.01C1.191,51.776,1.8,50.9,3.009,50.564Zm-.2-.606a2.211,2.211,0,0,0-1.549,2.761,2.269,2.269,0,0,0,2.828,1.616,2.173,2.173,0,0,0,1.481-2.761A2.229,2.229,0,0,0,2.807,49.958Z" transform="translate(-0.383 -16.293)"></path>
                    <path id="Path_44" data-name="Path 44" d="M5.512,60.926c-.471.269-.539.471-.337.741l-.135.067L4.3,60.387l.135-.067c.2.337.337.337.808.067l2.289-1.279c.471-.269.539-.471.337-.741L8,58.3l1.414,2.559-.673.4L8.677,61.2c.4-.337.337-.471.135-.875l-.539-.943-1.481.875.539.943c.135.269.337.269.673.135l.067.135-1.01.606-.067-.135a.411.411,0,0,0,.2-.606l-.539-.943Z" transform="translate(-1.405 -19.046)"></path>
                    <path id="Path_45" data-name="Path 45" d="M16.632,72.571l-.067-.067c.135-.337.135-.4-.2-.673l-.808-.673L14.545,72.3c-.135.135-.135.269.067.4l.606.471c.471.4.606.471,1.145.2l.067.067-.673.471L13.4,71.965l.067-.067c.269.2.471.2.808-.2l1.683-2.02c.337-.4.337-.606.067-.808l.067-.067,2.357,1.953-.471.539-.067-.067c.2-.4.135-.539-.2-.808l-.943-.808-1.145,1.347.943.741c.2.2.337.2.606,0l.067.067Z" transform="translate(-4.378 -22.476)"></path>
                    <path id="Path_46" data-name="Path 46" d="M24.093,74.371l.741.337a1.779,1.779,0,0,1,.808,2.626,1.638,1.638,0,0,1-2.289,1.01l-.4-.2c-.337-.135-.471-.337-.135-.943Zm-1.885,2.761c-.2.471-.4.539-.741.4l-.067.135,1.818.875a2.041,2.041,0,0,0,2.963-.875A2.149,2.149,0,0,0,24.9,74.708L23.151,73.9h0c.337.135.337.337.135.808Z" transform="translate(-6.991 -24.142)"></path>
                    <path id="Path_47" data-name="Path 47" d="M33.145,80.969c-.135.539,0,.673.337.741v.135L32,81.507v-.135c.337.067.471,0,.606-.539l.539-2.559c.135-.539,0-.673-.337-.741V77.4l1.481.337v.135c-.337-.067-.539.067-.606.539Z" transform="translate(-10.454 -25.286)"></path>
                    <path id="Path_48" data-name="Path 48" d="M43.173,82.642h-.135l-3.03-3.636h0v2.963c0,.4.2.606.539.606v.135H39.267v-.135c.337,0,.539-.135.539-.741V79.343c0-.471-.135-.741-.606-.808V78.4h1.077l2.693,3.3h0V79.208c0-.539-.135-.673-.539-.673V78.4h1.279v.135c-.4,0-.539.2-.539.673Z" transform="translate(-12.806 -25.613)"></path>
                    <path id="Path_49" data-name="Path 49" d="M50.981,79.174l-.471-1.751.4-.135c.673-.2,1.077.067,1.212.606s-.135.943-.741,1.145Zm-.135,1.549c.135.471.067.673-.269.808l.067.135,1.885-.539c.741-.2,1.212-.741,1.01-1.347a1.344,1.344,0,0,0-1.347-.875h0c.539-.337.673-.673.539-1.145-.135-.539-.741-.875-1.683-.606l-1.549.4v.135c.337-.067.471,0,.673.539Zm.2-1.414.4-.135a1.1,1.1,0,0,1,1.481.673c.135.606-.135,1.01-.539,1.077l-.471.135c-.337.067-.471,0-.606-.539Z" transform="translate(-16.171 -25.175)"></path>
                    <path id="Path_50" data-name="Path 50" d="M62.213,75.6a2.084,2.084,0,0,1-.875,1.347,1.285,1.285,0,0,1-1.953-.539l-1.077-1.818c-.269-.471-.471-.539-.741-.337l-.067-.135,1.347-.741.067.135c-.269.2-.337.337-.067.808l1.077,1.885a.985.985,0,0,0,1.481.4,1.414,1.414,0,0,0,.673-1.212L60.8,73.179c-.269-.4-.4-.539-.741-.337l-.067-.2,1.279-.741.067.135c-.337.2-.337.4-.067.808l1.347,2.289c.269.471.471.471.741.337l.067.135-.875.471Z" transform="translate(-18.785 -23.489)"></path>
                    <path id="Path_51" data-name="Path 51" d="M66.675,68.26l.337-.337a.928.928,0,0,1,1.414-.067.97.97,0,0,1,0,1.414l-.337.337Zm1.481,1.481.269-.269c.539-.539,1.414,0,2.626.135L71.658,69l-.067-.067c-.539.471-1.683-.337-2.626-.135a1,1,0,0,0-.135-1.347,1.248,1.248,0,0,0-1.818.2L65.8,68.866l.067.067c.269-.269.4-.269.808.135l1.885,1.885c.4.4.4.606.135.808l.067.067,1.077-1.077-.067-.067c-.269.269-.471.2-.808-.135Z" transform="translate(-21.496 -21.937)"></path>
                    <path id="Path_52" data-name="Path 52" d="M77.367,61.089a5.367,5.367,0,0,1-.539,1.077c-.943,1.616-2.289,1.549-3.1,1.01a2.271,2.271,0,0,1-.875-3.1c.337-.539.606-.606.741-.875.067-.135.067-.2,0-.269l.067-.135,1.077.673-.067.135a1.328,1.328,0,0,0-1.683.606c-.471.741-.135,1.683.875,2.289a1.956,1.956,0,0,0,2.761-.337c.135-.269.337-.673,0-.875l-.4-.269c-.471-.269-.673-.269-.875,0l-.067.135-.135-.067.875-1.481.135.067c-.2.337-.135.539.2.741Z" transform="translate(-23.704 -19.209)"></path>
                    <path id="Path_53" data-name="Path 53" d="M78.324,53.105l1.212.337c.471.135.673.067.808-.269l.135.067-.4,1.481-.135-.067c.067-.337,0-.471-.539-.673l-2.559-.741c-.471-.135-.673-.067-.808.269l-.135-.067.4-1.481.135.067c-.067.337,0,.539.539.673l1.145.337.673-2.222-1.145-.337c-.471-.135-.673-.067-.808.269l-.135-.067.4-1.481.135.067c-.135.337,0,.539.539.673l2.559.741c.471.135.673.067.808-.269l.135.067-.4,1.481-.2-.135c.067-.337,0-.471-.539-.673l-1.212-.337Z" transform="translate(-24.796 -16.073)"></path>
                    <path id="Path_54" data-name="Path 54" d="M2.908,42.7a.388.388,0,0,1-.4.4.388.388,0,0,1-.4-.4.434.434,0,0,1,.4-.4C2.706,42.367,2.908,42.5,2.908,42.7Z" transform="translate(-0.686 -13.819)"></path>
                    <path id="Path_55" data-name="Path 55" d="M81.708,42.8a.4.4,0,1,1-.4-.4A.388.388,0,0,1,81.708,42.8Z" transform="translate(-26.429 -13.852)"></path>
                  </g>
                </g>
                <g id="Group_6" data-name="Group 6" transform="translate(70.496 15.149)">
                  <path id="Path_56" data-name="Path 56" d="M109.75,23.639h-1.145v5.992a1.49,1.49,0,0,0,.2.943.9.9,0,0,0,.673.269v.2H106.72v-.2c.337,0,.606-.067.673-.269a1.629,1.629,0,0,0,.2-.943V23.706h-1.145a1.684,1.684,0,0,0-1.145.269,1,1,0,0,0-.4.875h-.2V23.1h.2a1.684,1.684,0,0,0,1.145.269h4.04A1.781,1.781,0,0,0,111.3,23.1h.269v1.751h-.135a1.175,1.175,0,0,0-.539-.875A1.556,1.556,0,0,0,109.75,23.639Z" transform="translate(-104.7 -22.696)"></path>
                  <path id="Path_57" data-name="Path 57" d="M122.394,29.629V27.407h-4.242v2.222a1.49,1.49,0,0,0,.2.943.709.709,0,0,0,.673.269v.2H116.2v-.2a.709.709,0,0,0,.673-.269,1.63,1.63,0,0,0,.2-.943V24.781a1.892,1.892,0,0,0-.2-1.01.709.709,0,0,0-.673-.269v-.2h2.828v.2c-.337,0-.606.067-.673.269a1.783,1.783,0,0,0-.2.943v2.222h4.242V24.714a1.49,1.49,0,0,0-.2-.943.709.709,0,0,0-.673-.269v-.2h2.761v.2a.709.709,0,0,0-.673.269,1.629,1.629,0,0,0-.2.943v4.848a1.49,1.49,0,0,0,.2.943.709.709,0,0,0,.673.269v.2h-2.761v-.2c.337,0,.606-.067.673-.269C122.327,30.437,122.394,30.1,122.394,29.629Z" transform="translate(-108.457 -22.761)"></path>
                  <path id="Path_58" data-name="Path 58" d="M134.783,26.361h.2v1.885h-.2a.843.843,0,0,0-.337-.606,1.934,1.934,0,0,0-.808-.135h-1.953v2.761a.569.569,0,0,0,.135.4.644.644,0,0,0,.471.135h1.347a3.876,3.876,0,0,0,1.01-.067,1.085,1.085,0,0,0,.471-.269,2.944,2.944,0,0,0,.4-.673h.2l-.337,1.481H129.8v-.2c.337,0,.606-.067.673-.269a1.63,1.63,0,0,0,.2-.943V25.014a1.49,1.49,0,0,0-.2-.943.709.709,0,0,0-.673-.269v-.2h5.588v1.279h-.067a1.261,1.261,0,0,0-.337-.741,1.49,1.49,0,0,0-.943-.2H131.82v3.3h2.155a1.345,1.345,0,0,0,.606-.135A3.035,3.035,0,0,0,134.783,26.361Z" transform="translate(-112.9 -22.859)"></path>
                  <path id="Path_59" data-name="Path 59" d="M150.66,29.427V24.781a1.63,1.63,0,0,0-.2-.943.709.709,0,0,0-.673-.269v-.2h2.761v.2a.709.709,0,0,0-.673.269,1.629,1.629,0,0,0-.2.943v4.848a1.629,1.629,0,0,0,.2.943.709.709,0,0,0,.673.269v.2H150.66V29.966a3.279,3.279,0,0,1-2.559,1.279,2.694,2.694,0,0,1-1.953-.741,2.657,2.657,0,0,1-.673-1.953V24.714a1.49,1.49,0,0,0-.2-.943.709.709,0,0,0-.673-.269v-.2h2.828v.2a.839.839,0,0,0-.741.269,1.629,1.629,0,0,0-.2.943v3.905a2.1,2.1,0,0,0,.539,1.481,1.984,1.984,0,0,0,1.481.539A2.245,2.245,0,0,0,150.66,29.427Z" transform="translate(-117.735 -22.761)"></path>
                  <path id="Path_60" data-name="Path 60" d="M163.892,23.6v-.2h2.357v.2a.983.983,0,0,0-.808.269,1.629,1.629,0,0,0-.2.943v6.329h-.269l-5.521-6.733v5.454a1.17,1.17,0,0,0,.2.808,1.138,1.138,0,0,0,.808.269v.2H158.1v-.2c.4,0,.606-.067.741-.269a1.892,1.892,0,0,0,.2-1.01V25.151a1.592,1.592,0,0,0-.269-1.077,1.522,1.522,0,0,0-.875-.4v-.2h2.02l4.848,6.06V25.016a1.892,1.892,0,0,0-.2-1.01C164.5,23.669,164.3,23.6,163.892,23.6Z" transform="translate(-122.08 -22.794)"></path>
                  <path id="Path_61" data-name="Path 61" d="M174.761,23.267v.2a.709.709,0,0,0-.673.269,1.629,1.629,0,0,0-.2.943v4.848a1.49,1.49,0,0,0,.2.943.709.709,0,0,0,.673.269v.2H172v-.2a.709.709,0,0,0,.673-.269,1.629,1.629,0,0,0,.2-.943V24.681a1.892,1.892,0,0,0-.2-1.01A.709.709,0,0,0,172,23.4v-.2h2.761Z" transform="translate(-126.686 -22.729)"></path>
                  <path id="Path_62" data-name="Path 62" d="M185.108,23.3v.269c-.539,0-1.01.471-1.414,1.481l-2.289,6.127h-.2l-2.424-6.329a2.116,2.116,0,0,0-.606-1.077,1.563,1.563,0,0,0-.673-.269v-.2h2.828v.2c-.471,0-.673.2-.673.539a.854.854,0,0,0,.067.4l1.885,4.982,1.818-4.848a2.082,2.082,0,0,0,.135-.539c0-.337-.2-.539-.673-.539v-.2h2.222Z" transform="translate(-128.483 -22.761)"></path>
                  <path id="Path_63" data-name="Path 63" d="M194.915,26.361h.2v1.885h-.2a.843.843,0,0,0-.337-.606,1.934,1.934,0,0,0-.808-.135h-1.953v2.761a.569.569,0,0,0,.135.4.644.644,0,0,0,.471.135h1.347a3.876,3.876,0,0,0,1.01-.067,1.085,1.085,0,0,0,.471-.269,2.944,2.944,0,0,0,.4-.673h.2l-.337,1.481H190v-.2c.337,0,.606-.067.673-.269a1.629,1.629,0,0,0,.2-.943V25.014a1.49,1.49,0,0,0-.2-.943A.709.709,0,0,0,190,23.8v-.2h5.588v1.279h-.135a1.261,1.261,0,0,0-.337-.741,1.49,1.49,0,0,0-.943-.2h-2.222v3.3h2.155a1.345,1.345,0,0,0,.606-.135C194.78,26.832,194.848,26.63,194.915,26.361Z" transform="translate(-132.567 -22.859)"></path>
                  <path id="Path_64" data-name="Path 64" d="M202.891,27.507h-.606v2.155a1.49,1.49,0,0,0,.2.943.709.709,0,0,0,.673.269v.2H200.4v-.2c.337,0,.606-.067.673-.269a1.629,1.629,0,0,0,.2-.943V24.814a1.49,1.49,0,0,0-.2-.943.709.709,0,0,0-.673-.269v-.2h3.165a2.758,2.758,0,0,1,1.885.606,1.818,1.818,0,0,1,.673,1.481,1.868,1.868,0,0,1-1.616,1.885,2.736,2.736,0,0,1,.673.606,9.858,9.858,0,0,1,.875,1.279A8.166,8.166,0,0,0,207,30.6a1.081,1.081,0,0,0,.741.337v.2h-1.616a12.435,12.435,0,0,1-1.212-1.751,7.506,7.506,0,0,0-1.145-1.549A1.418,1.418,0,0,0,202.891,27.507Zm.135-3.838h-.808v3.5h.943a1.834,1.834,0,0,0,1.347-.471,1.676,1.676,0,0,0,.471-1.279,1.724,1.724,0,0,0-.539-1.279A1.9,1.9,0,0,0,203.026,23.669Z" transform="translate(-135.964 -22.794)"></path>
                  <path id="Path_65" data-name="Path 65" d="M216.238,23.167h.2v1.818h-.2a2.006,2.006,0,0,0-.539-1.212,1.7,1.7,0,0,0-1.145-.4,1.654,1.654,0,0,0-1.01.337,1,1,0,0,0-.4.875,1.418,1.418,0,0,0,.337.875,5.205,5.205,0,0,0,1.347,1.01,8.188,8.188,0,0,1,1.683,1.279,2.072,2.072,0,0,1,.4,1.279,1.95,1.95,0,0,1-.673,1.549,2.192,2.192,0,0,1-1.549.673,3.931,3.931,0,0,1-1.347-.269,2.651,2.651,0,0,0-.4-.135c-.135,0-.2.067-.269.269h-.2V29.025h.2a2.045,2.045,0,0,0,.539,1.414,1.97,1.97,0,0,0,1.279.539,1.584,1.584,0,0,0,1.145-.4,1.37,1.37,0,0,0,.4-1.01,1.418,1.418,0,0,0-.337-.875,5.183,5.183,0,0,0-1.481-1.077,9.744,9.744,0,0,1-1.212-.875,2.781,2.781,0,0,1-.471-.741,3.411,3.411,0,0,1-.135-.875,1.969,1.969,0,0,1,2.155-2.02,3.735,3.735,0,0,1,1.145.2,1.185,1.185,0,0,0,.4.067c.067,0,.135,0,.135-.067C216.171,23.3,216.238,23.235,216.238,23.167Z" transform="translate(-139.884 -22.696)"></path>
                  <path id="Path_66" data-name="Path 66" d="M223.761,23.267v.2a.709.709,0,0,0-.673.269,1.629,1.629,0,0,0-.2.943v4.848a1.49,1.49,0,0,0,.2.943.709.709,0,0,0,.673.269v.2H221v-.2a.709.709,0,0,0,.673-.269,1.629,1.629,0,0,0,.2-.943V24.681a1.892,1.892,0,0,0-.2-1.01A.709.709,0,0,0,221,23.4v-.2h2.761Z" transform="translate(-142.694 -22.729)"></path>
                  <path id="Path_67" data-name="Path 67" d="M231.85,23.639h-1.145v5.992a1.49,1.49,0,0,0,.2.943.9.9,0,0,0,.673.269v.2H228.82v-.2c.337,0,.606-.067.673-.269a1.63,1.63,0,0,0,.2-.943V23.706h-1.145a1.684,1.684,0,0,0-1.145.269,1,1,0,0,0-.4.875h-.2V23.1h.2a1.684,1.684,0,0,0,1.145.269h4.04A1.781,1.781,0,0,0,233.4,23.1h.269v1.751h-.135a1.175,1.175,0,0,0-.539-.875A1.556,1.556,0,0,0,231.85,23.639Z" transform="translate(-144.589 -22.696)"></path>
                  <path id="Path_68" data-name="Path 68" d="M243.858,24.51l-1.751,2.761v2.424a1.49,1.49,0,0,0,.2.943.709.709,0,0,0,.673.269v.2h-2.828v-.2c.4,0,.606-.067.741-.269a1.63,1.63,0,0,0,.2-.943V27.271l-1.683-2.559c-.269-.4-.471-.741-.673-.808a1.21,1.21,0,0,0-.741-.2v-.2h3.03v.2c-.539,0-.808.135-.808.337a.957.957,0,0,0,.135.4l1.549,2.357,1.212-1.953a1.254,1.254,0,0,0,.269-.741c0-.269-.2-.4-.539-.4v-.2H245v.2a1,1,0,0,0-.673.2C244.262,23.9,244.06,24.106,243.858,24.51Z" transform="translate(-148.248 -22.827)"></path>
                  <path id="Path_69" data-name="Path 69" d="M254.328,28a1.176,1.176,0,0,1,.943.471,1.651,1.651,0,0,1,.4,1.077,3.582,3.582,0,0,1-.808,2.155,2.355,2.355,0,0,1-1.953,1.077,1.211,1.211,0,0,1-1.01-.471,1.584,1.584,0,0,1-.4-1.145,3.213,3.213,0,0,1,.875-2.222A2.7,2.7,0,0,1,254.328,28Zm-1.077,4.377a1.434,1.434,0,0,0,1.145-.808,3.654,3.654,0,0,0,.471-1.953,1.353,1.353,0,0,0-.269-.875.935.935,0,0,0-.673-.337,1.434,1.434,0,0,0-1.145.808,3.57,3.57,0,0,0-.471,1.885,1.143,1.143,0,0,0,.269.875A1.026,1.026,0,0,0,253.251,32.377Z" transform="translate(-152.658 -24.297)"></path>
                  <path id="Path_70" data-name="Path 70" d="M259.6,26.338l-.067.337h-.943l-.741,3.973A9.235,9.235,0,0,1,257.173,33a3.352,3.352,0,0,1-1.01,1.145,2.489,2.489,0,0,1-1.414.4,3.109,3.109,0,0,1-1.549-.337l.2-.943h.2a1.124,1.124,0,0,0,1.212,1.01,1.839,1.839,0,0,0,1.279-.539,4.752,4.752,0,0,0,.875-2.424l.875-4.579H256.9l.067-.337h.943l.337-1.616a3.275,3.275,0,0,1,.875-1.818,2.113,2.113,0,0,1,1.414-.471,2.968,2.968,0,0,1,.943.2l.067-.135h.269l-.269,1.212h-.269c-.067-.673-.337-.943-.875-.943-.673,0-1.077.539-1.347,1.683l-.4,2.02h.943Z" transform="translate(-153.213 -22.5)"></path>
                  <path id="Path_71" data-name="Path 71" d="M274.082,26.361h.2v1.885h-.2a.843.843,0,0,0-.337-.606,1.934,1.934,0,0,0-.808-.135h-1.953v2.761a.569.569,0,0,0,.135.4.644.644,0,0,0,.471.135h1.347a3.876,3.876,0,0,0,1.01-.067,1.085,1.085,0,0,0,.471-.269,2.944,2.944,0,0,0,.4-.673h.2l-.337,1.481H269.1v-.2c.337,0,.606-.067.673-.269a1.63,1.63,0,0,0,.2-.943V25.014a1.49,1.49,0,0,0-.2-.943.709.709,0,0,0-.673-.269v-.2h5.588v1.279h-.135a1.261,1.261,0,0,0-.337-.741,1.49,1.49,0,0,0-.943-.2h-2.222v3.3h2.155a1.345,1.345,0,0,0,.606-.135A1.122,1.122,0,0,0,274.082,26.361Z" transform="translate(-158.408 -22.859)"></path>
                  <path id="Path_72" data-name="Path 72" d="M279.7,31.076v-.2a.709.709,0,0,0,.673-.269,1.63,1.63,0,0,0,.2-.943V24.814a1.49,1.49,0,0,0-.2-.943.709.709,0,0,0-.673-.269v-.2h3.569a4.443,4.443,0,0,1,3.165,1.145,3.712,3.712,0,0,1,1.212,2.9A3.6,3.6,0,0,1,286.5,30.2a4.58,4.58,0,0,1-3.165,1.01H279.7Zm3.367-7.406h-1.481v5.723a2.3,2.3,0,0,0,.2,1.145.918.918,0,0,0,.808.337h.808a2.843,2.843,0,0,0,2.222-.943,3.7,3.7,0,0,0,.808-2.491,3.822,3.822,0,0,0-.875-2.693A2.992,2.992,0,0,0,283.067,23.669Z" transform="translate(-161.871 -22.794)"></path>
                  <path id="Path_73" data-name="Path 73" d="M295.828,23.267v.2a.709.709,0,0,0-.673.269,1.63,1.63,0,0,0-.2.943v4.848a1.49,1.49,0,0,0,.2.943.709.709,0,0,0,.673.269v.2H293v-.2a.709.709,0,0,0,.673-.269,1.629,1.629,0,0,0,.2-.943V24.681a1.892,1.892,0,0,0-.2-1.01A.709.709,0,0,0,293,23.4v-.2h2.828Z" transform="translate(-166.216 -22.729)"></path>
                  <path id="Path_74" data-name="Path 74" d="M304.492,23.6v-.2h2.357v.2a.983.983,0,0,0-.808.269,1.629,1.629,0,0,0-.2.943v6.329h-.269l-5.521-6.733v5.454a1.169,1.169,0,0,0,.2.808,1.138,1.138,0,0,0,.808.269v.2H298.7v-.2c.4,0,.606-.067.741-.269a1.893,1.893,0,0,0,.2-1.01V25.151a1.592,1.592,0,0,0-.269-1.077,1.522,1.522,0,0,0-.875-.4v-.2h2.02l4.848,6.06V25.016a1.893,1.893,0,0,0-.2-1.01C305.1,23.669,304.9,23.6,304.492,23.6Z" transform="translate(-168.013 -22.794)"></path>
                  <path id="Path_75" data-name="Path 75" d="M315.769,31.076H312.2v-.2a.709.709,0,0,0,.673-.269,1.63,1.63,0,0,0,.2-.943V24.814a1.491,1.491,0,0,0-.2-.943.709.709,0,0,0-.673-.269v-.2h2.9a3.356,3.356,0,0,1,1.953.539,1.638,1.638,0,0,1,.741,1.347c0,.808-.539,1.414-1.549,1.751h0a2.47,2.47,0,0,1,1.414.808,1.873,1.873,0,0,1,.539,1.414,1.691,1.691,0,0,1-.673,1.414A3.207,3.207,0,0,1,315.769,31.076Zm-1.683-7.406v3.3h.808a1.834,1.834,0,0,0,1.347-.471,1.44,1.44,0,0,0,.471-1.212,1.44,1.44,0,0,0-.471-1.212,2.137,2.137,0,0,0-1.347-.4Zm.741,3.569h-.741v2.289a2.958,2.958,0,0,0,.135,1.01.656.656,0,0,0,.606.269h.673a1.256,1.256,0,0,0,1.077-.471,1.757,1.757,0,0,0,.4-1.212,1.834,1.834,0,0,0-.606-1.414A2.137,2.137,0,0,0,314.826,27.238Z" transform="translate(-172.488 -22.794)"></path>
                  <path id="Path_76" data-name="Path 76" d="M328.56,29.427V24.781a1.63,1.63,0,0,0-.2-.943.709.709,0,0,0-.673-.269v-.2h2.761v.2a.709.709,0,0,0-.673.269,1.63,1.63,0,0,0-.2.943v4.848a1.63,1.63,0,0,0,.2.943.709.709,0,0,0,.673.269v.2H328.56V29.966A3.279,3.279,0,0,1,326,31.245a2.694,2.694,0,0,1-1.953-.741,2.656,2.656,0,0,1-.673-1.953V24.714a1.491,1.491,0,0,0-.2-.943.709.709,0,0,0-.673-.269v-.2h2.828v.2a.839.839,0,0,0-.741.269,1.63,1.63,0,0,0-.2.943v3.905a2.1,2.1,0,0,0,.539,1.481,1.984,1.984,0,0,0,1.481.539A2.245,2.245,0,0,0,328.56,29.427Z" transform="translate(-175.853 -22.761)"></path>
                  <path id="Path_77" data-name="Path 77" d="M338.559,27.507h-.606v2.155a1.49,1.49,0,0,0,.2.943.709.709,0,0,0,.673.269v.2H336v-.2c.337,0,.606-.067.673-.269a1.63,1.63,0,0,0,.2-.943V24.814a1.49,1.49,0,0,0-.2-.943A.709.709,0,0,0,336,23.6v-.2h3.165a2.758,2.758,0,0,1,1.885.606,1.817,1.817,0,0,1,.673,1.481,1.868,1.868,0,0,1-1.616,1.885,2.736,2.736,0,0,1,.673.606,9.855,9.855,0,0,1,.875,1.279A8.167,8.167,0,0,0,342.6,30.6a1.081,1.081,0,0,0,.741.337v.2h-1.616a12.438,12.438,0,0,1-1.212-1.751,7.5,7.5,0,0,0-1.145-1.549A1.009,1.009,0,0,0,338.559,27.507Zm.2-3.838h-.808v3.5h.943a1.834,1.834,0,0,0,1.347-.471,1.676,1.676,0,0,0,.471-1.279,1.724,1.724,0,0,0-.539-1.279A2,2,0,0,0,338.761,23.669Z" transform="translate(-180.263 -22.794)"></path>
                  <path id="Path_78" data-name="Path 78" d="M354.776,27.679v.2a1.083,1.083,0,0,0-.741.2,1.17,1.17,0,0,0-.2.808v2.087a9.352,9.352,0,0,1-1.01.135,7.785,7.785,0,0,1-1.145.067,4.822,4.822,0,0,1-3.367-1.077,3.433,3.433,0,0,1-1.212-2.761,4.441,4.441,0,0,1,.539-2.155,3.645,3.645,0,0,1,1.481-1.549,3.507,3.507,0,0,1,2.02-.539,5.935,5.935,0,0,1,1.414.2,4.4,4.4,0,0,0,.741.135.369.369,0,0,0,.4-.269h.269v2.289h-.2a2.423,2.423,0,0,0-.875-1.549,2.586,2.586,0,0,0-1.683-.606,2.487,2.487,0,0,0-2.02,1.01,3.883,3.883,0,0,0-.808,2.559,4.338,4.338,0,0,0,.943,2.828,2.838,2.838,0,0,0,2.289,1.145c.875,0,1.279-.269,1.279-.808V29.16a1.892,1.892,0,0,0-.2-1.01.709.709,0,0,0-.673-.269h-.269v-.2Z" transform="translate(-183.89 -22.696)"></path>
                  <path id="Path_79" data-name="Path 79" d="M365.494,29.629V27.407h-4.242v2.222a1.49,1.49,0,0,0,.2.943.709.709,0,0,0,.673.269v.2H359.3v-.2a.709.709,0,0,0,.673-.269,1.63,1.63,0,0,0,.2-.943V24.781a1.893,1.893,0,0,0-.2-1.01.709.709,0,0,0-.673-.269v-.2h2.828v.2c-.337,0-.606.067-.673.269a1.783,1.783,0,0,0-.2.943v2.222h4.242V24.714a1.49,1.49,0,0,0-.2-.943.709.709,0,0,0-.673-.269v-.2h2.761v.2a.709.709,0,0,0-.673.269,1.629,1.629,0,0,0-.2.943v4.848a1.49,1.49,0,0,0,.2.943.709.709,0,0,0,.673.269v.2h-2.761v-.2c.337,0,.606-.067.673-.269C365.427,30.437,365.494,30.1,365.494,29.629Z" transform="translate(-187.875 -22.761)"></path>
                </g>
              </svg>